a1000-p1000.ufo
<glyph name="exclam" format="1">
  <advance width="337"/>
  <unicode hex="0021"/>
  <outline>
    <contour>
      <point x="168" y="-10" type="curve" smooth="yes"/>
      <point x="235" y="-10"/>
      <point x="274" y="26"/>
      <point x="274" y="90" type="curve" smooth="yes"/>
      <point x="274" y="154"/>
      <point x="235" y="190"/>
      <point x="168" y="190" type="curve" smooth="yes"/>
      <point x="101" y="190"/>
      <point x="62" y="154"/>
      <point x="62" y="90" type="curve" smooth="yes"/>
      <point x="62" y="26"/>
      <point x="101" y="-10"/>
    </contour>
    <contour>
      <point x="100" y="277" type="line"/>
      <point x="238" y="277" type="line"/>
      <point x="238" y="287" type="line"/>
      <point x="280" y="730" type="line"/>
      <point x="280" y="740" type="line"/>
      <point x="57" y="740" type="line"/>
      <point x="57" y="730" type="line"/>
      <point x="100" y="287" type="line"/>
    </contour>
  </outline>
</glyph>
<glyph name="quotesingle" format="1">
  <advance width="256"/>
  <unicode hex="0027"/>
  <outline>
    <contour>
      <point x="51" y="808" type="line"/>
      <point x="51" y="480" type="line"/>
      <point x="176" y="480" type="line"/>
      <point x="229" y="804" type="line"/>
      <point x="229" y="808" type="line"/>
    </contour>
  </outline>
</glyph>
<glyph name="hyphen" format="1">
  <advance width="596"/>
  <unicode hex="002D"/>
  <outline>
    <contour>
      <point x="52" y="198" type="line"/>
      <point x="544" y="198" type="line"/>
      <point x="544" y="362" type="line"/>
      <point x="52" y="362" type="line"/>
    </contour>
  </outline>
</glyph>
<glyph name="period" format="1">
  <advance width="317"/>
  <unicode hex="002E"/>
  <outline>
    <contour>
      <point x="158" y="-10" type="curve" smooth="yes"/>
      <point x="233" y="-10"/>
      <point x="284" y="26"/>
      <point x="284" y="105" type="curve" smooth="yes"/>
      <point x="284" y="185"/>
      <point x="233" y="220"/>
      <point x="158" y="220" type="curve" smooth="yes"/>
      <point x="84" y="220"/>
      <point x="33" y="185"/>
      <point x="33" y="105" type="curve" smooth="yes"/>
      <point x="33" y="26"/>
      <point x="84" y="-10"/>
    </contour>
  </outline>
</glyph>
<glyph name="slash" format="1">
  <advance width="513"/>
  <unicode hex="002F"/>
  <outline>
    <contour>
      <point x="21" y="-120" type="line"/>
      <point x="218" y="-120" type="line"/>
      <point x="492" y="740" type="line"/>
      <point x="295" y="740" type="line"/>
    </contour>
  </outline>
</glyph>
<glyph name="four" format="1">
  <advance width="754"/>
  <unicode hex="0034"/>
  <outline>
    <contour>
      <point x="34" y="122" type="line"/>
      <point x="733" y="122" type="line"/>
      <point x="733" y="298" type="line"/>
      <point x="247" y="298" type="line"/>
      <point x="247" y="302" type="line"/>
      <point x="515" y="706" type="line"/>
      <point x="505" y="730" type="line"/>
      <point x="266" y="750" type="line"/>
      <point x="262" y="750" type="line"/>
      <point x="13" y="278" type="line"/>
      <point x="13" y="264" type="line"/>
    </contour>
    <contour>
      <point x="380" y="0" type="line"/>
      <point x="610" y="0" type="line"/>
      <point x="610" y="450" type="line"/>
      <point x="443" y="450" type="line"/>
      <point x="380" y="227" type="line"/>
    </contour>
  </outline>
</glyph>
<glyph name="five" format="1">
  <advance width="660"/>
  <unicode hex="0035"/>
  <outline>
    <contour>
      <point x="269" y="-13" type="curve" smooth="yes"/>
      <point x="438" y="-13"/>
      <point x="631" y="29"/>
      <point x="631" y="228" type="curve" smooth="yes"/>
      <point x="631" y="420"/>
      <point x="490" y="465"/>
      <point x="225" y="465" type="curve"/>
      <point x="247" y="405" type="line"/>
      <point x="260" y="670" type="line"/>
      <point x="171" y="564" type="line"/>
      <point x="585" y="564" type="line"/>
      <point x="585" y="740" type="line"/>
      <point x="85" y="740" type="line"/>
      <point x="52" y="325" type="line"/>
      <point x="77" y="301" type="line"/>
      <point x="155" y="301" type="line" smooth="yes"/>
      <point x="330" y="301"/>
      <point x="384" y="289"/>
      <point x="384" y="240" type="curve" smooth="yes"/>
      <point x="384" y="171"/>
      <point x="336" y="161"/>
      <point x="234" y="161" type="curve" smooth="yes"/>
      <point x="190" y="161"/>
      <point x="147" y="164"/>
      <point x="96" y="173" type="curve"/>
      <point x="45" y="173" type="line"/>
      <point x="45" y="4" type="line"/>
      <point x="120" y="-5"/>
      <point x="195" y="-13"/>
    </contour>
  </outline>
</glyph>
<glyph name="eight" format="1">
  <advance width="757"/>
  <unicode hex="0038"/>
  <outline>
    <contour>
      <point x="382" y="-10" type="curve" smooth="yes"/>
      <point x="632" y="-10"/>
      <point x="719" y="76"/>
      <point x="719" y="216" type="curve" smooth="yes"/>
      <point x="719" y="386"/>
      <point x="572" y="419"/>
      <point x="447" y="443" type="curve" smooth="yes"/>
      <point x="352" y="461"/>
      <point x="270" y="475"/>
      <point x="270" y="536" type="curve" smooth="yes"/>
      <point x="270" y="575"/>
      <point x="316" y="597"/>
      <point x="382" y="597" type="curve" smooth="yes"/>
      <point x="448" y="597"/>
      <point x="495" y="569"/>
      <point x="495" y="529" type="curve" smooth="yes"/>
      <point x="495" y="496"/>
      <point x="468" y="451"/>
      <point x="400" y="418" type="curve"/>
      <point x="497" y="349" type="line"/>
      <point x="659" y="410"/>
      <point x="701" y="451"/>
      <point x="701" y="549" type="curve" smooth="yes"/>
      <point x="701" y="669"/>
      <point x="590" y="749"/>
      <point x="398" y="749" type="curve" smooth="yes"/>
      <point x="197" y="749"/>
      <point x="64" y="669"/>
      <point x="64" y="549" type="curve" smooth="yes"/>
      <point x="64" y="370"/>
      <point x="212" y="339"/>
      <point x="335" y="311" type="curve" smooth="yes"/>
      <point x="423" y="291"/>
      <point x="498" y="274"/>
      <point x="498" y="206" type="curve" smooth="yes"/>
      <point x="498" y="165"/>
      <point x="456" y="143"/>
      <point x="382" y="143" type="curve" smooth="yes"/>
      <point x="308" y="143"/>
      <point x="256" y="170"/>
      <point x="256" y="220" type="curve" smooth="yes"/>
      <point x="256" y="272"/>
      <point x="298" y="307"/>
      <point x="352" y="336" type="curve"/>
      <point x="230" y="398" type="line"/>
      <point x="98" y="357"/>
      <point x="35" y="293"/>
      <point x="35" y="192" type="curve" smooth="yes"/>
      <point x="35" y="67"/>
      <point x="124" y="-10"/>
    </contour>
  </outline>
</glyph>
<glyph name="equal" format="1">
  <advance width="556"/>
  <unicode hex="003D"/>
  <outline>
    <contour>
      <point x="56" y="167" type="line"/>
      <point x="500" y="167" type="line"/>
      <point x="500" y="305" type="line"/>
      <point x="56" y="305" type="line"/>
    </contour>
    <contour>
      <point x="56" y="390" type="line"/>
      <point x="500" y="390" type="line"/>
      <point x="500" y="528" type="line"/>
      <point x="56" y="528" type="line"/>
    </contour>
  </outline>
</glyph>
<glyph name="B" format="1">
  <advance width="794"/>
  <unicode hex="0042"/>
  <outline>
    <contour>
      <point x="432" y="-10" type="curve" smooth="yes"/>
      <point x="663" y="-10"/>
      <point x="766" y="56"/>
      <point x="766" y="205" type="curve" smooth="yes"/>
      <point x="766" y="298"/>
      <point x="709" y="360"/>
      <point x="606" y="379" type="curve"/>
      <point x="606" y="383" type="line"/>
      <point x="696" y="407"/>
      <point x="741" y="458"/>
      <point x="741" y="537" type="curve" smooth="yes"/>
      <point x="741" y="684"/>
      <point x="631" y="750"/>
      <point x="385" y="750" type="curve" smooth="yes"/>
      <point x="280" y="750"/>
      <point x="177" y="745"/>
      <point x="65" y="735" type="curve"/>
      <point x="65" y="5" type="line"/>
      <point x="198" y="-5"/>
      <point x="308" y="-10"/>
    </contour>
    <contour>
      <point x="416" y="149" type="curve" smooth="yes"/>
      <point x="320" y="149"/>
      <point x="308" y="149"/>
      <point x="290" y="152" type="curve"/>
      <point x="290" y="303" type="line"/>
      <point x="416" y="303" type="line" smooth="yes"/>
      <point x="502" y="303"/>
      <point x="534" y="283"/>
      <point x="534" y="230" type="curve" smooth="yes"/>
      <point x="534" y="174"/>
      <point x="498" y="149"/>
    </contour>
    <contour>
      <point x="290" y="447" type="line"/>
      <point x="290" y="586" type="line"/>
      <point x="317" y="590"/>
      <point x="354" y="592"/>
      <point x="395" y="592" type="curve" smooth="yes"/>
      <point x="480" y="592"/>
      <point x="510" y="573"/>
      <point x="510" y="520" type="curve" smooth="yes"/>
      <point x="510" y="466"/>
      <point x="480" y="447"/>
      <point x="395" y="447" type="curve" smooth="yes"/>
    </contour>
  </outline>
</glyph>
<glyph name="C" format="1">
  <advance width="653"/>
  <unicode hex="0043"/>
  <outline>
    <contour>
      <point x="378" y="885" type="move" name="topUC"/>
    </contour>
    <contour>
      <point x="413" y="-110" type="move" name="bottom"/>
    </contour>
    <contour>
      <point x="457" y="-15" type="curve" smooth="yes"/>
      <point x="509" y="-15"/>
      <point x="563" y="-10"/>
      <point x="619" y="0" type="curve"/>
      <point x="619" y="187" type="line"/>
      <point x="586" y="181"/>
      <point x="503" y="175"/>
      <point x="459" y="175" type="curve" smooth="yes"/>
      <point x="306" y="175"/>
      <point x="275" y="208"/>
      <point x="275" y="369" type="curve" smooth="yes"/>
      <point x="275" y="536"/>
      <point x="304" y="566"/>
      <point x="461" y="566" type="curve" smooth="yes"/>
      <point x="497" y="566"/>
      <point x="517" y="565"/>
      <point x="619" y="556" type="curve"/>
      <point x="619" y="742" type="line"/>
      <point x="530" y="751"/>
      <point x="479" y="755"/>
      <point x="433" y="755" type="curve" smooth="yes"/>
      <point x="163" y="755"/>
      <point x="33" y="630"/>
      <point x="33" y="369" type="curve" smooth="yes"/>
      <point x="33" y="107"/>
      <point x="168" y="-15"/>
    </contour>
  </outline>
</glyph>
<glyph name="E" format="1">
  <advance width="727"/>
  <unicode hex="0045"/>
  <outline>
    <contour>
      <point x="583" y="54" type="move" name="ogonek"/>
    </contour>
    <contour>
      <point x="377" y="885" type="move" name="topUC"/>
    </contour>
    <contour>
      <point x="368" y="-110" type="move" name="bottom"/>
    </contour>
    <contour>
      <point x="65" y="0" type="line"/>
      <point x="691" y="0" type="line"/>
      <point x="691" y="176" type="line"/>
      <point x="300" y="176" type="line"/>
      <point x="300" y="564" type="line"/>
      <point x="681" y="564" type="line"/>
      <point x="681" y="740" type="line"/>
      <point x="65" y="740" type="line"/>
    </contour>
    <contour>
      <point x="179" y="282" type="line"/>
      <point x="641" y="282" type="line"/>
      <point x="641" y="458" type="line"/>
      <point x="179" y="458" type="line"/>
    </contour>
  </outline>
</glyph>
<glyph name="I" format="1">
  <advance width="365"/>
  <unicode hex="0049"/>
  <outline>
    <contour>
      <point x="183" y="54" type="move" name="ogonek"/>
    </contour>
    <contour>
      <point x="188" y="885" type="move" name="topUC"/>
    </contour>
    <contour>
      <point x="183" y="-110" type="move" name="bottom"/>
    </contour>
    <contour>
      <point x="65" y="0" type="line"/>
      <point x="300" y="0" type="line"/>
      <point x="300" y="740" type="line"/>
      <point x="65" y="740" type="line"/>
    </contour>
  </outline>
</glyph>
<glyph name="K" format="1">
  <advance width="810"/>
  <unicode hex="004B"/>
  <outline>
    <contour>
      <point x="408" y="-110" type="move" name="bottom"/>
    </contour>
    <contour>
      <point x="65" y="0" type="line"/>
      <point x="300" y="0" type="line"/>
      <point x="300" y="282" type="line"/>
      <point x="408" y="282" type="line"/>
      <point x="562" y="0" type="line"/>
      <point x="823" y="0" type="line"/>
      <point x="607" y="357" type="line"/>
      <point x="549" y="385" type="line"/>
      <point x="549" y="395" type="line"/>
      <point x="604" y="421" type="line"/>
      <point x="806" y="740" type="line"/>
      <point x="545" y="740" type="line"/>
      <point x="387" y="458" type="line"/>
      <point x="300" y="458" type="line"/>
      <point x="300" y="740" type="line"/>
      <point x="65" y="740" type="line"/>
    </contour>
  </outline>
</glyph>
<glyph name="M" format="1">
  <advance width="1084"/>
  <unicode hex="004D"/>
  <outline>
    <contour>
      <point x="65" y="0" type="line"/>
      <point x="269" y="0" type="line"/>
      <point x="269" y="492" type="line"/>
      <point x="279" y="492" type="line"/>
      <point x="349" y="269" type="line"/>
      <point x="450" y="27" type="line"/>
      <point x="634" y="27" type="line"/>
      <point x="735" y="269" type="line"/>
      <point x="805" y="492" type="line"/>
      <point x="815" y="492" type="line"/>
      <point x="815" y="0" type="line"/>
      <point x="1019" y="0" type="line"/>
      <point x="1019" y="740" type="line"/>
      <point x="704" y="740" type="line"/>
      <point x="589" y="445" type="line"/>
      <point x="545" y="290" type="line"/>
      <point x="539" y="290" type="line"/>
      <point x="495" y="445" type="line"/>
      <point x="380" y="740" type="line"/>
      <point x="65" y="740" type="line"/>
    </contour>
  </outline>
</glyph>
<glyph name="O" format="1">
  <advance width="866"/>
  <unicode hex="004F"/>
  <outline>
    <contour>
      <point x="364" y="54" type="move" name="ogonek"/>
    </contour>
    <contour>
      <point x="432" y="885" type="move" name="topUC"/>
    </contour>
    <contour>
      <point x="364" y="-110" type="move" name="bottom"/>
    </contour>
    <contour>
      <point x="433" y="-10" type="curve"/>
      <point x="692" y="-10"/>
      <point x="834" y="124"/>
      <point x="834" y="369" type="curve" smooth="yes"/>
      <point x="834" y="615"/>
      <point x="692" y="750"/>
      <point x="433" y="750" type="curve" smooth="yes"/>
      <point x="172" y="750"/>
      <point x="32" y="617"/>
      <point x="32" y="369" type="curve" smooth="yes"/>
      <point x="32" y="123"/>
      <point x="173" y="-10"/>
    </contour>
    <contour>
      <point x="433" y="174" type="curve" smooth="yes"/>
      <point x="306" y="174"/>
      <point x="272" y="207"/>
      <point x="272" y="369" type="curve" smooth="yes"/>
      <point x="272" y="529"/>
      <point x="309" y="566"/>
      <point x="433" y="566" type="curve" smooth="yes"/>
      <point x="556" y="566"/>
      <point x="594" y="526"/>
      <point x="594" y="369" type="curve" smooth="yes"/>
      <point x="594" y="206"/>
      <point x="562" y="174"/>
    </contour>
  </outline>
</glyph>
<glyph name="P" format="1">
  <advance width="774"/>
  <unicode hex="0050"/>
  <outline>
    <contour>
      <point x="329" y="191" type="curve" smooth="yes"/>
      <point x="612" y="191"/>
      <point x="757" y="286"/>
      <point x="757" y="472" type="curve" smooth="yes"/>
      <point x="757" y="668"/>
      <point x="629" y="750"/>
      <point x="325" y="750" type="curve" smooth="yes"/>
      <point x="246" y="750"/>
      <point x="160" y="745"/>
      <point x="65" y="735" type="curve"/>
      <point x="65" y="208" type="line"/>
      <point x="203" y="195"/>
      <point x="265" y="191"/>
    </contour>
    <contour>
      <point x="371" y="370" type="curve" smooth="yes"/>
      <point x="346" y="370"/>
      <point x="323" y="372"/>
      <point x="300" y="376" type="curve"/>
      <point x="300" y="568" type="line"/>
      <point x="319" y="570"/>
      <point x="358" y="572"/>
      <point x="383" y="572" type="curve" smooth="yes"/>
      <point x="494" y="572"/>
      <point x="518" y="550"/>
      <point x="518" y="472" type="curve" smooth="yes"/>
      <point x="518" y="392"/>
      <point x="486" y="370"/>
    </contour>
    <contour>
      <point x="65" y="0" type="line"/>
      <point x="300" y="0" type="line"/>
      <point x="300" y="690" type="line"/>
      <point x="65" y="690" type="line"/>
    </contour>
  </outline>
</glyph>
<glyph name="R" format="1">
  <advance width="793"/>
  <unicode hex="0052"/>
  <outline>
    <contour>
      <point x="398" y="885" type="move" name="topUC"/>
    </contour>
    <contour>
      <point x="408" y="-110" type="move" name="bottom"/>
    </contour>
    <contour>
      <point x="65" y="0" type="line"/>
      <point x="300" y="0" type="line"/>
      <point x="300" y="221" type="line"/>
      <point x="329" y="221" type="line" smooth="yes"/>
      <point x="613" y="221"/>
      <point x="757" y="311"/>
      <point x="757" y="487" type="curve" smooth="yes"/>
      <point x="757" y="672"/>
      <point x="628" y="750"/>
      <point x="325" y="750" type="curve" smooth="yes"/>
      <point x="246" y="750"/>
      <point x="160" y="745"/>
      <point x="65" y="735" type="curve"/>
    </contour>
    <contour>
      <point x="371" y="398" type="curve" smooth="yes"/>
      <point x="331" y="398"/>
      <point x="316" y="399"/>
      <point x="300" y="404" type="curve"/>
      <point x="300" y="568" type="line"/>
      <point x="321" y="570"/>
      <point x="360" y="572"/>
      <point x="383" y="572" type="curve" smooth="yes"/>
      <point x="491" y="572"/>
      <point x="518" y="554"/>
      <point x="518" y="486" type="curve" smooth="yes"/>
      <point x="518" y="418"/>
      <point x="486" y="398"/>
    </contour>
    <contour>
      <point x="530" y="0" type="line"/>
      <point x="799" y="0" type="line"/>
      <point x="524" y="391" type="line"/>
      <point x="376" y="276" type="line"/>
    </contour>
  </outline>
</glyph>
<glyph name="S" format="1">
  <advance width="719"/>
  <unicode hex="0053"/>
  <outline>
    <contour>
      <point x="368" y="884" type="move" name="topUC"/>
    </contour>
    <contour>
      <point x="366" y="-34" type="move" name="bottom"/>
    </contour>
    <contour>
      <point x="351" y="-12" type="curve" smooth="yes"/>
      <point x="583" y="-12"/>
      <point x="695" y="67"/>
      <point x="695" y="231" type="curve" smooth="yes"/>
      <point x="695" y="358"/>
      <point x="613" y="424"/>
      <point x="415" y="454" type="curve" smooth="yes"/>
      <point x="324" y="468"/>
      <point x="292" y="486"/>
      <point x="292" y="524" type="curve" smooth="yes"/>
      <point x="292" y="556"/>
      <point x="330" y="571"/>
      <point x="409" y="571" type="curve" smooth="yes"/>
      <point x="482" y="571"/>
      <point x="578" y="557"/>
      <point x="652" y="535" type="curve"/>
      <point x="652" y="720" type="line"/>
      <point x="515" y="744"/>
      <point x="454" y="751"/>
      <point x="381" y="751" type="curve" smooth="yes"/>
      <point x="170" y="751"/>
      <point x="44" y="664"/>
      <point x="44" y="517" type="curve" smooth="yes"/>
      <point x="44" y="369"/>
      <point x="134" y="292"/>
      <point x="334" y="269" type="curve" smooth="yes"/>
      <point x="417" y="259"/>
      <point x="447" y="243"/>
      <point x="447" y="208" type="curve" smooth="yes"/>
      <point x="447" y="178"/>
      <point x="419" y="168"/>
      <point x="335" y="168" type="curve" smooth="yes"/>
      <point x="254" y="168"/>
      <point x="165" y="178"/>
      <point x="37" y="203" type="curve"/>
      <point x="37" y="17" type="line"/>
      <point x="131" y="0"/>
      <point x="262" y="-12"/>
    </contour>
  </outline>
</glyph>
<glyph name="U" format="1">
  <advance width="880"/>
  <unicode hex="0055"/>
  <outline>
    <contour>
      <point x="438" y="54" type="move" name="ogonek"/>
    </contour>
    <contour>
      <point x="441" y="885" type="move" name="topUC"/>
    </contour>
    <contour>
      <point x="438" y="-110" type="move" name="bottom"/>
    </contour>
    <contour>
      <point x="440" y="-10" type="curve"/>
      <point x="732" y="-10"/>
      <point x="823" y="98"/>
      <point x="823" y="317" type="curve" smooth="yes"/>
      <point x="823" y="743" type="line"/>
      <point x="588" y="743" type="line"/>
      <point x="588" y="303" type="line" smooth="yes"/>
      <point x="588" y="227"/>
      <point x="544" y="174"/>
      <point x="440" y="174" type="curve" smooth="yes"/>
      <point x="336" y="174"/>
      <point x="292" y="227"/>
      <point x="292" y="303" type="curve" smooth="yes"/>
      <point x="292" y="743" type="line"/>
      <point x="57" y="743" type="line"/>
      <point x="57" y="317" type="line" smooth="yes"/>
      <point x="57" y="98"/>
      <point x="147" y="-10"/>
    </contour>
  </outline>
</glyph>
<glyph name="Y" format="1">
  <advance width="792"/>
  <unicode hex="0059"/>
  <outline>
    <contour>
      <point x="393" y="885" type="move" name="topUC"/>
    </contour>
    <contour>
      <point x="280" y="0" type="line"/>
      <point x="515" y="0" type="line"/>
      <point x="515" y="231" type="line"/>
      <point x="803" y="740" type="line"/>
      <point x="550" y="740" type="line"/>
      <point x="438" y="523" type="line"/>
      <point x="400" y="430" type="line"/>
      <point x="390" y="430" type="line"/>
      <point x="352" y="523" type="line"/>
      <point x="240" y="740" type="line"/>
      <point x="-13" y="740" type="line"/>
      <point x="280" y="222" type="line"/>
    </contour>
  </outline>
</glyph>
<glyph name="Z" format="1">
  <advance width="733"/>
  <unicode hex="005A"/>
  <outline>
    <contour>
      <point x="366" y="885" type="move" name="topUC"/>
    </contour>
    <contour>
      <point x="363" y="-110" type="move" name="bottom"/>
    </contour>
    <contour>
      <point x="32" y="0" type="line"/>
      <point x="704" y="0" type="line"/>
      <point x="704" y="176" type="line"/>
      <point x="322" y="176" type="line"/>
      <point x="322" y="186" type="line"/>
      <point x="683" y="586" type="line"/>
      <point x="683" y="740" type="line"/>
      <point x="47" y="740" type="line"/>
      <point x="47" y="564" type="line"/>
      <point x="392" y="564" type="line"/>
      <point x="392" y="554" type="line"/>
      <point x="32" y="160" type="line"/>
    </contour>
  </outline>
</glyph>
<glyph name="grave" format="1">
  <advance width="342"/>
  <unicode hex="0060"/>
  <outline>
    <contour>
      <point x="210" y="674" type="move" name="_top"/>
    </contour>
    <contour>
      <point x="138" y="607" type="line"/>
      <point x="5" y="808" type="line"/>
      <point x="241" y="808" type="line"/>
      <point x="302" y="617" type="line"/>
    </contour>
  </outline>
</glyph>
<glyph name="k" format="1">
  <advance width="692"/>
  <unicode hex="006B"/>
  <outline>
    <contour>
      <point x="369" y="-110" type="move" name="bottom"/>
    </contour>
    <contour>
      <point x="55" y="0" type="line"/>
      <point x="285" y="0" type="line"/>
      <point x="285" y="211" type="line"/>
      <point x="324" y="211" type="line"/>
      <point x="456" y="0" type="line"/>
      <point x="707" y="0" type="line"/>
      <point x="516" y="271" type="line"/>
      <point x="487" y="277" type="line"/>
      <point x="487" y="281" type="line"/>
      <point x="516" y="287" type="line"/>
      <point x="689" y="540" type="line"/>
      <point x="437" y="540" type="line"/>
      <point x="326" y="346" type="line"/>
      <point x="285" y="346" type="line"/>
      <point x="285" y="808" type="line"/>
      <point x="55" y="808" type="line"/>
    </contour>
  </outline>
</glyph>
<glyph name="l" format="1">
  <advance width="340"/>
  <unicode hex="006C"/>
  <outline>
    <contour>
      <point x="170" y="910" type="move" name="top"/>
    </contour>
    <contour>
      <point x="348" y="370" type="move" name="periodcentered"/>
    </contour>
    <contour>
      <point x="346" y="674" type="move" name="caronalt"/>
    </contour>
    <contour>
      <point x="170" y="-110" type="move" name="bottom"/>
    </contour>
    <contour>
      <point x="55" y="0" type="line"/>
      <point x="285" y="0" type="line"/>
      <point x="285" y="808" type="line"/>
      <point x="55" y="808" type="line"/>
    </contour>
  </outline>
</glyph>
<glyph name="s" format="1">
  <advance width="615"/>
  <unicode hex="0073"/>
  <outline>
    <contour>
      <point x="319" y="679" type="move" name="top"/>
    </contour>
    <contour>
      <point x="314" y="-105" type="move" name="bottom"/>
    </contour>
    <contour>
      <point x="298" y="-12" type="curve" smooth="yes"/>
      <point x="490" y="-12"/>
      <point x="585" y="49"/>
      <point x="585" y="173" type="curve" smooth="yes"/>
      <point x="585" y="272"/>
      <point x="521" y="326"/>
      <point x="380" y="339" type="curve" smooth="yes"/>
      <point x="289" y="348"/>
      <point x="262" y="354"/>
      <point x="262" y="372" type="curve" smooth="yes"/>
      <point x="262" y="389"/>
      <point x="283" y="396"/>
      <point x="336" y="396" type="curve" smooth="yes"/>
      <point x="386" y="396"/>
      <point x="473" y="384"/>
      <point x="557" y="366" type="curve"/>
      <point x="563" y="531" type="line"/>
      <point x="452" y="546"/>
      <point x="388" y="552"/>
      <point x="318" y="552" type="curve" smooth="yes"/>
      <point x="146" y="552"/>
      <point x="42" y="482"/>
      <point x="42" y="366" type="curve" smooth="yes"/>
      <point x="42" y="204"/>
      <point x="178" y="195"/>
      <point x="276" y="187" type="curve" smooth="yes"/>
      <point x="345" y="181"/>
      <point x="365" y="173"/>
      <point x="365" y="156" type="curve" smooth="yes"/>
      <point x="365" y="140"/>
      <point x="344" y="135"/>
      <point x="285" y="135" type="curve" smooth="yes"/>
      <point x="214" y="135"/>
      <point x="139" y="143"/>
      <point x="37" y="160" type="curve"/>
      <point x="37" y="10" type="line"/>
      <point x="118" y="-3"/>
      <point x="227" y="-12"/>
    </contour>
  </outline>
</glyph>
<glyph name="u" format="1">
  <advance width="740"/>
  <unicode hex="0075"/>
  <outline>
    <contour>
      <point x="359" y="674" type="move" name="top"/>
    </contour>
    <contour>
      <point x="349" y="54" type="move" name="ogonek"/>
    </contour>
    <contour>
      <point x="349" y="-110" type="move" name="bottom"/>
    </contour>
    <contour>
      <point x="223" y="-10" type="curve" smooth="yes"/>
      <point x="334" y="-10"/>
      <point x="376" y="10"/>
      <point x="476" y="63" type="curve"/>
      <point x="480" y="63" type="line"/>
      <point x="491" y="0" type="line"/>
      <point x="684" y="0" type="line"/>
      <point x="684" y="540" type="line"/>
      <point x="454" y="540" type="line"/>
      <point x="454" y="176" type="line"/>
      <point x="412" y="164"/>
      <point x="361" y="154"/>
      <point x="330" y="154" type="curve" smooth="yes"/>
      <point x="296" y="154"/>
      <point x="282" y="170"/>
      <point x="282" y="210" type="curve" smooth="yes"/>
      <point x="282" y="540" type="line"/>
      <point x="52" y="540" type="line"/>
      <point x="52" y="144" type="line" smooth="yes"/>
      <point x="52" y="49"/>
      <point x="112" y="-10"/>
    </contour>
  </outline>
</glyph>
<glyph name="w" format="1">
  <advance width="934"/>
  <unicode hex="0077"/>
  <outline>
    <contour>
      <point x="464" y="674" type="move" name="top"/>
    </contour>
    <contour>
      <point x="164" y="0" type="line"/>
      <point x="411" y="0" type="line"/>
      <point x="454" y="206" type="line"/>
      <point x="461" y="270" type="line"/>
      <point x="473" y="270" type="line"/>
      <point x="480" y="206" type="line"/>
      <point x="523" y="0" type="line"/>
      <point x="770" y="0" type="line"/>
      <point x="930" y="536" type="line"/>
      <point x="930" y="540" type="line"/>
      <point x="699" y="540" type="line"/>
      <point x="644" y="273" type="line"/>
      <point x="636" y="203" type="line"/>
      <point x="624" y="203" type="line"/>
      <point x="616" y="273" type="line"/>
      <point x="556" y="540" type="line"/>
      <point x="378" y="540" type="line"/>
      <point x="318" y="273" type="line"/>
      <point x="310" y="203" type="line"/>
      <point x="298" y="203" type="line"/>
      <point x="290" y="273" type="line"/>
      <point x="235" y="540" type="line"/>
      <point x="4" y="540" type="line"/>
      <point x="4" y="536" type="line"/>
    </contour>
  </outline>
</glyph>
<glyph name="currency" format="1">
  <advance width="665"/>
  <unicode hex="00A4"/>
  <outline>
    <contour>
      <point x="66" y="370" type="curve" smooth="yes"/>
      <point x="66" y="260"/>
      <point x="172" y="187"/>
      <point x="333" y="187" type="curve" smooth="yes"/>
      <point x="492" y="187"/>
      <point x="599" y="260"/>
      <point x="599" y="370" type="curve" smooth="yes"/>
      <point x="599" y="479"/>
      <point x="493" y="552"/>
      <point x="333" y="552" type="curve" smooth="yes"/>
      <point x="173" y="552"/>
      <point x="66" y="479"/>
    </contour>
    <contour>
      <point x="199" y="370" type="curve" smooth="yes"/>
      <point x="199" y="421"/>
      <point x="251" y="446"/>
      <point x="333" y="446" type="curve" smooth="yes"/>
      <point x="410" y="446"/>
      <point x="466" y="425"/>
      <point x="466" y="370" type="curve" smooth="yes"/>
      <point x="466" y="319"/>
      <point x="414" y="293"/>
      <point x="333" y="293" type="curve" smooth="yes"/>
      <point x="251" y="293"/>
      <point x="199" y="320"/>
    </contour>
    <contour>
      <point x="46" y="577" type="line"/>
      <point x="101" y="523" type="line"/>
      <point x="203" y="451" type="line"/>
      <point x="251" y="499" type="line"/>
      <point x="180" y="602" type="line"/>
      <point x="125" y="656" type="line"/>
    </contour>
    <contour>
      <point x="125" y="84" type="line"/>
      <point x="180" y="138" type="line"/>
      <point x="255" y="247" type="line"/>
      <point x="211" y="295" type="line"/>
      <point x="101" y="217" type="line"/>
      <point x="46" y="163" type="line"/>
    </contour>
    <contour>
      <point x="619" y="163" type="line"/>
      <point x="565" y="217" type="line"/>
      <point x="456" y="293" type="line"/>
      <point x="410" y="247" type="line"/>
      <point x="485" y="138" type="line"/>
      <point x="540" y="84" type="line"/>
    </contour>
    <contour>
      <point x="540" y="656" type="line"/>
      <point x="485" y="602" type="line"/>
      <point x="404" y="486" type="line"/>
      <point x="456" y="447" type="line"/>
      <point x="565" y="523" type="line"/>
      <point x="619" y="577" type="line"/>
    </contour>
  </outline>
</glyph>
<glyph name="section" format="1">
  <advance width="642"/>
  <unicode hex="00A7"/>
  <outline>
    <contour>
      <point x="310" y="-12" type="curve" smooth="yes"/>
      <point x="502" y="-12"/>
      <point x="597" y="49"/>
      <point x="597" y="173" type="curve" smooth="yes"/>
      <point x="597" y="213"/>
      <point x="583" y="244"/>
      <point x="555" y="267" type="curve"/>
      <point x="583" y="296"/>
      <point x="597" y="334"/>
      <point x="597" y="382" type="curve" smooth="yes"/>
      <point x="597" y="481"/>
      <point x="533" y="535"/>
      <point x="392" y="548" type="curve" smooth="yes"/>
      <point x="301" y="557"/>
      <point x="274" y="563"/>
      <point x="274" y="581" type="curve" smooth="yes"/>
      <point x="274" y="598"/>
      <point x="295" y="605"/>
      <point x="348" y="605" type="curve" smooth="yes"/>
      <point x="398" y="605"/>
      <point x="485" y="593"/>
      <point x="569" y="575" type="curve"/>
      <point x="575" y="740" type="line"/>
      <point x="464" y="755"/>
      <point x="400" y="761"/>
      <point x="330" y="761" type="curve" smooth="yes"/>
      <point x="158" y="761"/>
      <point x="54" y="691"/>
      <point x="54" y="575" type="curve" smooth="yes"/>
      <point x="54" y="527"/>
      <point x="69" y="494"/>
      <point x="93" y="472" type="curve"/>
      <point x="68" y="443"/>
      <point x="54" y="408"/>
      <point x="54" y="366" type="curve" smooth="yes"/>
      <point x="54" y="204"/>
      <point x="190" y="195"/>
      <point x="288" y="187" type="curve" smooth="yes"/>
      <point x="357" y="181"/>
      <point x="377" y="173"/>
      <point x="377" y="156" type="curve" smooth="yes"/>
      <point x="377" y="140"/>
      <point x="356" y="135"/>
      <point x="297" y="135" type="curve" smooth="yes"/>
      <point x="226" y="135"/>
      <point x="151" y="143"/>
      <point x="49" y="160" type="curve"/>
      <point x="49" y="10" type="line"/>
      <point x="130" y="-3"/>
      <point x="239" y="-12"/>
    </contour>
    <contour>
      <point x="374" y="322" type="curve"/>
      <point x="340" y="328" type="line" smooth="yes"/>
      <point x="290" y="338"/>
      <point x="274" y="352"/>
      <point x="274" y="388" type="curve" smooth="yes"/>
      <point x="274" y="399"/>
      <point x="275" y="408"/>
      <point x="278" y="417" type="curve"/>
      <point x="318" y="411" type="line" smooth="yes"/>
      <point x="363" y="404"/>
      <point x="377" y="389"/>
      <point x="377" y="343" type="curve" smooth="yes"/>
      <point x="377" y="335"/>
      <point x="376" y="328"/>
    </contour>
  </outline>
</glyph>
<glyph name="dieresis" format="1">
  <advance width="599"/>
  <unicode hex="00A8"/>
  <outline>
    <contour>
      <point x="296" y="674" type="move" name="_top"/>
    </contour>
    <contour>
      <point x="149" y="606" type="curve" smooth="yes"/>
      <point x="229" y="606"/>
      <point x="258" y="638"/>
      <point x="258" y="712" type="curve" smooth="yes"/>
      <point x="258" y="782"/>
      <point x="229" y="817"/>
      <point x="149" y="817" type="curve" smooth="yes"/>
      <point x="71" y="817"/>
      <point x="40" y="786"/>
      <point x="40" y="712" type="curve" smooth="yes"/>
      <point x="40" y="638"/>
      <point x="71" y="606"/>
    </contour>
    <contour>
      <point x="446" y="606" type="curve" smooth="yes"/>
      <point x="526" y="606"/>
      <point x="555" y="638"/>
      <point x="555" y="712" type="curve" smooth="yes"/>
      <point x="555" y="782"/>
      <point x="526" y="817"/>
      <point x="446" y="817" type="curve" smooth="yes"/>
      <point x="368" y="817"/>
      <point x="337" y="786"/>
      <point x="337" y="712" type="curve" smooth="yes"/>
      <point x="337" y="638"/>
      <point x="368" y="606"/>
    </contour>
  </outline>
</glyph>
<glyph name="ordfeminine" format="1">
  <advance width="530"/>
  <unicode hex="00AA"/>
  <outline>
    <contour>
      <point x="169" y="348" type="curve" smooth="yes"/>
      <point x="223" y="348"/>
      <point x="279" y="370"/>
      <point x="315" y="399" type="curve"/>
      <point x="319" y="399" type="line"/>
      <point x="328" y="352" type="line"/>
      <point x="480" y="352" type="line"/>
      <point x="480" y="622" type="line" smooth="yes"/>
      <point x="480" y="708"/>
      <point x="412" y="746"/>
      <point x="254" y="746" type="curve" smooth="yes"/>
      <point x="194" y="746"/>
      <point x="125" y="740"/>
      <point x="65" y="728" type="curve"/>
      <point x="72" y="622" type="line"/>
      <point x="125" y="628"/>
      <point x="189" y="632"/>
      <point x="235" y="632" type="curve" smooth="yes"/>
      <point x="295" y="632"/>
      <point x="297" y="632"/>
      <point x="297" y="574" type="curve" smooth="yes"/>
      <point x="297" y="475" type="line"/>
      <point x="286" y="471"/>
      <point x="263" y="468"/>
      <point x="246" y="468" type="curve" smooth="yes"/>
      <point x="218" y="468"/>
      <point x="206" y="476"/>
      <point x="206" y="489" type="curve" smooth="yes"/>
      <point x="206" y="499"/>
      <point x="217" y="499"/>
      <point x="245" y="504" type="curve" smooth="yes"/>
      <point x="329" y="511" type="line"/>
      <point x="321" y="601" type="line"/>
      <point x="193" y="596" type="line" smooth="yes"/>
      <point x="89" y="587"/>
      <point x="28" y="552"/>
      <point x="28" y="476" type="curve" smooth="yes"/>
      <point x="28" y="398"/>
      <point x="82" y="348"/>
    </contour>
  </outline>
</glyph>
<glyph name="uni00AD" format="1">
  <advance width="596"/>
  <unicode hex="00AD"/>
  <outline>
    <contour>
      <point x="52" y="198" type="line"/>
      <point x="544" y="198" type="line"/>
      <point x="544" y="362" type="line"/>
      <point x="52" y="362" type="line"/>
    </contour>
  </outline>
</glyph>
<glyph name="macron" format="1">
  <advance width="578"/>
  <unicode hex="00AF"/>
  <outline>
    <contour>
      <point x="283" y="674" type="move" name="_top"/>
    </contour>
    <contour>
      <point x="51" y="643" type="line"/>
      <point x="517" y="643" type="line"/>
      <point x="517" y="791" type="line"/>
      <point x="51" y="791" type="line"/>
    </contour>
  </outline>
</glyph>
<glyph name="degree" format="1">
  <advance width="526"/>
  <unicode hex="00B0"/>
  <outline>
    <contour>
      <point x="264" y="371" type="curve" smooth="yes"/>
      <point x="404" y="371"/>
      <point x="502" y="450"/>
      <point x="502" y="560" type="curve" smooth="yes"/>
      <point x="502" y="670"/>
      <point x="404" y="750"/>
      <point x="264" y="750" type="curve" smooth="yes"/>
      <point x="123" y="750"/>
      <point x="24" y="670"/>
      <point x="24" y="560" type="curve" smooth="yes"/>
      <point x="24" y="450"/>
      <point x="123" y="371"/>
    </contour>
    <contour>
      <point x="264" y="484" type="curve" smooth="yes"/>
      <point x="196" y="484"/>
      <point x="165" y="511"/>
      <point x="165" y="560" type="curve" smooth="yes"/>
      <point x="165" y="609"/>
      <point x="196" y="637"/>
      <point x="264" y="637" type="curve" smooth="yes"/>
      <point x="331" y="637"/>
      <point x="361" y="609"/>
      <point x="361" y="560" type="curve" smooth="yes"/>
      <point x="361" y="511"/>
      <point x="331" y="484"/>
    </contour>
  </outline>
</glyph>
<glyph name="acute" format="1">
  <advance width="333"/>
  <unicode hex="00B4"/>
  <outline>
    <contour>
      <point x="124" y="674" type="move" name="_top"/>
    </contour>
    <contour>
      <point x="195" y="607" type="line"/>
      <point x="327" y="808" type="line"/>
      <point x="92" y="808" type="line"/>
      <point x="31" y="617" type="line"/>
    </contour>
  </outline>
</glyph>
<glyph name="paragraph" format="1">
  <advance width="752"/>
  <unicode hex="00B6"/>
  <outline>
    <contour>
      <point x="483" y="0" type="line"/>
      <point x="391" y="0" type="line"/>
      <point x="391" y="266" type="line"/>
      <point x="344" y="265"/>
      <point x="315" y="265"/>
      <point x="275" y="265" type="curve" smooth="yes"/>
      <point x="122" y="265"/>
      <point x="28" y="326"/>
      <point x="28" y="505" type="curve" smooth="yes"/>
      <point x="28" y="684"/>
      <point x="123" y="745"/>
      <point x="277" y="745" type="curve" smooth="yes"/>
      <point x="337" y="745"/>
      <point x="413" y="741"/>
      <point x="483" y="735" type="curve"/>
    </contour>
    <contour>
      <point x="663" y="0" type="line"/>
      <point x="536" y="0" type="line"/>
      <point x="536" y="735" type="line"/>
      <point x="663" y="735" type="line"/>
    </contour>
  </outline>
</glyph>
<glyph name="cedilla" format="1">
  <advance width="335"/>
  <unicode hex="00B8"/>
  <outline>
    <contour>
      <point x="184" y="-110" type="move" name="_bottom"/>
    </contour>
    <contour>
      <point x="162" y="-220" type="curve" smooth="yes"/>
      <point x="247" y="-220"/>
      <point x="303" y="-179"/>
      <point x="303" y="-107" type="curve" smooth="yes"/>
      <point x="303" y="-62"/>
      <point x="281" y="-26"/>
      <point x="194" y="58" type="curve"/>
      <point x="61" y="58" type="line"/>
      <point x="131" y="-5"/>
      <point x="159" y="-59"/>
      <point x="159" y="-79" type="curve" smooth="yes"/>
      <point x="159" y="-86"/>
      <point x="155" y="-93"/>
      <point x="134" y="-93" type="curve" smooth="yes"/>
      <point x="107" y="-93"/>
      <point x="69" y="-87"/>
      <point x="40" y="-80" type="curve"/>
      <point x="40" y="-208" type="line"/>
      <point x="83" y="-213"/>
      <point x="127" y="-220"/>
    </contour>
  </outline>
</glyph>
<glyph name="AE" format="1">
  <advance width="1117"/>
  <unicode hex="00C6"/>
  <outline>
    <contour>
      <point x="637" y="885" type="move" name="topUC"/>
    </contour>
    <contour>
      <point x="525" y="0" type="line"/>
      <point x="1081" y="0" type="line"/>
      <point x="1081" y="176" type="line"/>
      <point x="760" y="176" type="line"/>
      <point x="730" y="564" type="line"/>
      <point x="1061" y="564" type="line"/>
      <point x="1061" y="740" type="line"/>
      <point x="495" y="740" type="line"/>
    </contour>
    <contour>
      <point x="-13" y="0" type="line"/>
      <point x="215" y="0" type="line"/>
      <point x="474" y="583" type="line"/>
      <point x="580" y="583" type="line"/>
      <point x="580" y="740" type="line"/>
      <point x="312" y="740" type="line"/>
      <point x="-13" y="12" type="line"/>
    </contour>
    <contour>
      <point x="176" y="142" type="line"/>
      <point x="605" y="142" type="line"/>
      <point x="605" y="328" type="line"/>
      <point x="176" y="328" type="line"/>
    </contour>
    <contour>
      <point x="639" y="282" type="line"/>
      <point x="1051" y="282" type="line"/>
      <point x="1051" y="458" type="line"/>
      <point x="639" y="458" type="line"/>
    </contour>
  </outline>
</glyph>
<glyph name="Eth" format="1">
  <advance width="879"/>
  <unicode hex="00D0"/>
  <outline>
    <contour>
      <point x="5" y="288" type="line"/>
      <point x="426" y="288" type="line"/>
      <point x="426" y="462" type="line"/>
      <point x="5" y="462" type="line"/>
    </contour>
    <component base="D" xOffset="28"/>
  </outline>
</glyph>
<glyph name="ae" format="1">
  <advance width="1005"/>
  <unicode hex="00E6"/>
  <outline>
    <contour>
      <point x="517" y="674" type="move" name="top"/>
    </contour>
    <contour>
      <point x="693" y="-16" type="curve" smooth="yes"/>
      <point x="782" y="-16"/>
      <point x="874" y="-5"/>
      <point x="949" y="15" type="curve"/>
      <point x="944" y="174" type="line"/>
      <point x="898" y="163"/>
      <point x="791" y="154"/>
      <point x="714" y="154" type="curve" smooth="yes"/>
      <point x="639" y="154"/>
      <point x="614" y="161"/>
      <point x="607" y="212" type="curve"/>
      <point x="960" y="212" type="line"/>
      <point x="969" y="238"/>
      <point x="973" y="270"/>
      <point x="973" y="309" type="curve" smooth="yes"/>
      <point x="973" y="462"/>
      <point x="878" y="542"/>
      <point x="698" y="542" type="curve" smooth="yes"/>
      <point x="624" y="542"/>
      <point x="565" y="528"/>
      <point x="518" y="502" type="curve"/>
      <point x="508" y="502" type="line"/>
      <point x="463" y="532"/>
      <point x="398" y="548"/>
      <point x="313" y="548" type="curve" smooth="yes"/>
      <point x="225" y="548"/>
      <point x="143" y="541"/>
      <point x="60" y="526" type="curve"/>
      <point x="75" y="372" type="line"/>
      <point x="137" y="384"/>
      <point x="200" y="391"/>
      <point x="245" y="391" type="curve" smooth="yes"/>
      <point x="347" y="391"/>
      <point x="373" y="386"/>
      <point x="373" y="345" type="curve" smooth="yes"/>
      <point x="373" y="340" type="line"/>
      <point x="239" y="332" type="line" smooth="yes"/>
      <point x="97" y="323"/>
      <point x="29" y="267"/>
      <point x="29" y="160" type="curve" smooth="yes"/>
      <point x="29" y="54"/>
      <point x="87" y="-5"/>
      <point x="193" y="-5" type="curve" smooth="yes"/>
      <point x="283" y="-5"/>
      <point x="369" y="19"/>
      <point x="451" y="69" type="curve"/>
      <point x="461" y="69" type="line"/>
      <point x="507" y="12"/>
      <point x="584" y="-16"/>
    </contour>
    <contour>
      <point x="307" y="144" type="curve" smooth="yes"/>
      <point x="274" y="144"/>
      <point x="263" y="155"/>
      <point x="263" y="187" type="curve" smooth="yes"/>
      <point x="263" y="214"/>
      <point x="275" y="225"/>
      <point x="317" y="229" type="curve" smooth="yes"/>
      <point x="373" y="234" type="line"/>
      <point x="373" y="165" type="line"/>
      <point x="367" y="155"/>
      <point x="333" y="144"/>
    </contour>
    <contour>
      <point x="605" y="315" type="line"/>
      <point x="610" y="372"/>
      <point x="631" y="389"/>
      <point x="686" y="389" type="curve" smooth="yes"/>
      <point x="747" y="389"/>
      <point x="770" y="368"/>
      <point x="772" y="315" type="curve"/>
    </contour>
  </outline>
</glyph>
<glyph name="icircumflex" format="1">
  <advance width="342"/>
  <unicode hex="00EE"/>
  <outline>
    <contour>
      <point x="-42" y="597" type="line"/>
      <point x="172" y="678" type="line"/>
      <point x="387" y="597" type="line"/>
      <point x="387" y="745" type="line"/>
      <point x="169" y="827" type="line"/>
      <point x="-42" y="745" type="line"/>
    </contour>
    <component base="dotlessi" xOffset="1"/>
  </outline>
</glyph>
<glyph name="idieresis" format="1">
  <advance width="342"/>
  <unicode hex="00EF"/>
  <outline>
    <contour>
      <point x="49" y="606" type="curve" smooth="yes"/>
      <point x="129" y="606"/>
      <point x="158" y="638"/>
      <point x="158" y="712" type="curve" smooth="yes"/>
      <point x="158" y="782"/>
      <point x="129" y="817"/>
      <point x="49" y="817" type="curve" smooth="yes"/>
      <point x="-29" y="817"/>
      <point x="-60" y="786"/>
      <point x="-60" y="712" type="curve" smooth="yes"/>
      <point x="-60" y="638"/>
      <point x="-29" y="606"/>
    </contour>
    <contour>
      <point x="298" y="606" type="curve" smooth="yes"/>
      <point x="378" y="606"/>
      <point x="407" y="638"/>
      <point x="407" y="712" type="curve" smooth="yes"/>
      <point x="407" y="782"/>
      <point x="378" y="817"/>
      <point x="298" y="817" type="curve" smooth="yes"/>
      <point x="220" y="817"/>
      <point x="189" y="786"/>
      <point x="189" y="712" type="curve" smooth="yes"/>
      <point x="189" y="638"/>
      <point x="220" y="606"/>
    </contour>
    <component base="dotlessi" xOffset="1"/>
  </outline>
</glyph>
<glyph name="divide" format="1">
  <advance width="536"/>
  <unicode hex="00F7"/>
  <outline>
    <contour>
      <point x="270" y="91" type="curve" smooth="yes"/>
      <point x="318" y="91"/>
      <point x="353" y="119"/>
      <point x="353" y="177" type="curve" smooth="yes"/>
      <point x="353" y="233"/>
      <point x="318" y="259"/>
      <point x="270" y="259" type="curve" smooth="yes"/>
      <point x="221" y="259"/>
      <point x="186" y="233"/>
      <point x="186" y="177" type="curve" smooth="yes"/>
      <point x="186" y="119"/>
      <point x="221" y="91"/>
    </contour>
    <contour>
      <point x="31" y="303" type="line"/>
      <point x="505" y="303" type="line"/>
      <point x="505" y="437" type="line"/>
      <point x="31" y="437" type="line"/>
    </contour>
    <contour>
      <point x="270" y="481" type="curve" smooth="yes"/>
      <point x="318" y="481"/>
      <point x="353" y="507"/>
      <point x="353" y="563" type="curve" smooth="yes"/>
      <point x="353" y="621"/>
      <point x="318" y="649"/>
      <point x="270" y="649" type="curve" smooth="yes"/>
      <point x="221" y="649"/>
      <point x="186" y="621"/>
      <point x="186" y="563" type="curve" smooth="yes"/>
      <point x="186" y="507"/>
      <point x="221" y="481"/>
    </contour>
  </outline>
</glyph>
<glyph name="thorn" format="1">
  <advance width="734"/>
  <unicode hex="00FE"/>
  <outline>
    <contour>
      <point x="55" y="-220" type="line"/>
      <point x="285" y="-220" type="line"/>
      <point x="285" y="-4" type="line"/>
      <point x="312" y="-7"/>
      <point x="348" y="-9"/>
      <point x="340" y="-9" type="curve" smooth="yes"/>
      <point x="611" y="-9"/>
      <point x="701" y="101"/>
      <point x="701" y="279" type="curve" smooth="yes"/>
      <point x="701" y="463"/>
      <point x="637" y="549"/>
      <point x="474" y="549" type="curve" smooth="yes"/>
      <point x="352" y="549"/>
      <point x="293" y="505"/>
      <point x="262" y="471" type="curve"/>
      <point x="285" y="462" type="line"/>
      <point x="285" y="808" type="line"/>
      <point x="55" y="808" type="line"/>
    </contour>
    <contour>
      <point x="340" y="136" type="curve" smooth="yes"/>
      <point x="356" y="136"/>
      <point x="323" y="140"/>
      <point x="285" y="155" type="curve"/>
      <point x="285" y="162" type="line" smooth="yes"/>
      <point x="285" y="325"/>
      <point x="271" y="392"/>
      <point x="389" y="392" type="curve" smooth="yes"/>
      <point x="455" y="392"/>
      <point x="472" y="396"/>
      <point x="472" y="258" type="curve" smooth="yes"/>
      <point x="472" y="113"/>
      <point x="456" y="136"/>
    </contour>
  </outline>
</glyph>
<glyph name="dcroat" format="1">
  <advance width="738"/>
  <unicode hex="0111"/>
  <outline>
    <contour>
      <point x="280" y="612" type="line"/>
      <point x="754" y="612" type="line"/>
      <point x="754" y="735" type="line"/>
      <point x="280" y="735" type="line"/>
    </contour>
    <component base="d"/>
  </outline>
</glyph>
<glyph name="Lslash" format="1">
  <advance width="662"/>
  <unicode hex="0141"/>
  <outline>
    <contour>
      <point x="11" y="226" type="line"/>
      <point x="449" y="412" type="line"/>
      <point x="449" y="576" type="line"/>
      <point x="11" y="390" type="line"/>
    </contour>
    <component base="L" xOffset="18"/>
  </outline>
</glyph>
<glyph name="lslash" format="1">
  <advance width="474"/>
  <unicode hex="0142"/>
  <outline>
    <contour>
      <point x="25" y="236" type="line"/>
      <point x="461" y="422" type="line"/>
      <point x="461" y="586" type="line"/>
      <point x="25" y="400" type="line"/>
    </contour>
    <component base="l" xOffset="67"/>
  </outline>
</glyph>
<glyph name="Eng" format="1">
  <advance width="879"/>
  <unicode hex="014A"/>
  <outline>
    <contour>
      <point x="672" y="-220" type="line"/>
      <point x="753" y="-108"/>
      <point x="817" y="50"/>
      <point x="817" y="137" type="curve"/>
      <point x="817" y="740" type="line"/>
      <point x="610" y="740" type="line"/>
      <point x="610" y="327" type="line"/>
      <point x="600" y="327" type="line"/>
      <point x="533" y="412" type="line"/>
      <point x="242" y="740" type="line"/>
      <point x="65" y="740" type="line"/>
      <point x="65" y="0" type="line"/>
      <point x="272" y="0" type="line"/>
      <point x="272" y="413" type="line"/>
      <point x="282" y="413" type="line"/>
      <point x="363" y="312" type="line"/>
      <point x="595" y="51" type="line"/>
      <point x="587" y="-17"/>
      <point x="568" y="-71"/>
      <point x="519" y="-169" type="curve"/>
    </contour>
  </outline>
</glyph>
<glyph name="OE" format="1">
  <advance width="1236"/>
  <unicode hex="0152"/>
  <outline>
    <contour>
      <point x="433" y="-10" type="curve" smooth="yes"/>
      <point x="485" y="-10"/>
      <point x="528" y="-7"/>
      <point x="574" y="0" type="curve"/>
      <point x="1200" y="0" type="line"/>
      <point x="1200" y="176" type="line"/>
      <point x="809" y="176" type="line"/>
      <point x="809" y="282" type="line"/>
      <point x="1150" y="282" type="line"/>
      <point x="1150" y="458" type="line"/>
      <point x="809" y="458" type="line"/>
      <point x="809" y="564" type="line"/>
      <point x="1190" y="564" type="line"/>
      <point x="1190" y="740" type="line"/>
      <point x="574" y="740" type="line"/>
      <point x="532" y="746"/>
      <point x="490" y="750"/>
      <point x="433" y="750" type="curve" smooth="yes"/>
      <point x="172" y="750"/>
      <point x="32" y="617"/>
      <point x="32" y="369" type="curve" smooth="yes"/>
      <point x="32" y="123"/>
      <point x="173" y="-10"/>
    </contour>
    <contour>
      <point x="433" y="174" type="curve" smooth="yes"/>
      <point x="306" y="174"/>
      <point x="272" y="207"/>
      <point x="272" y="369" type="curve" smooth="yes"/>
      <point x="272" y="529"/>
      <point x="309" y="566"/>
      <point x="433" y="566" type="curve" smooth="yes"/>
      <point x="495" y="566"/>
      <point x="539" y="563"/>
      <point x="574" y="560" type="curve"/>
      <point x="574" y="180" type="line"/>
      <point x="539" y="175"/>
      <point x="493" y="174"/>
    </contour>
  </outline>
</glyph>
<glyph name="Tbar" format="1">
  <advance width="718"/>
  <unicode hex="0166"/>
  <outline>
    <contour>
      <point x="83" y="300" type="line"/>
      <point x="656" y="300" type="line"/>
      <point x="656" y="427" type="line"/>
      <point x="83" y="427" type="line"/>
    </contour>
    <component base="T" xOffset="5"/>
  </outline>
</glyph>
<glyph name="dotlessj" format="1">
  <advance width="337"/>
  <unicode hex="0237"/>
  <outline>
    <contour>
      <point x="167" y="674" type="move" name="top"/>
    </contour>
    <contour>
      <point x="193" y="-220" type="line"/>
      <point x="239" y="-132"/>
      <point x="269" y="-44"/>
      <point x="283" y="68" type="curve"/>
      <point x="283" y="540" type="line"/>
      <point x="53" y="540" type="line"/>
      <point x="57" y="338"/>
      <point x="58" y="259"/>
      <point x="58" y="190" type="curve" smooth="yes"/>
      <point x="58" y="-7"/>
      <point x="50" y="-75"/>
      <point x="22" y="-199" type="curve"/>
    </contour>
  </outline>
</glyph>
<glyph name="caron" format="1">
  <advance width="537"/>
  <unicode hex="02C7"/>
  <outline>
    <contour>
      <point x="265" y="674" type="move" name="_top"/>
    </contour>
    <contour>
      <point x="30" y="678" type="line"/>
      <point x="262" y="597" type="line"/>
      <point x="500" y="678" type="line"/>
      <point x="500" y="827" type="line"/>
      <point x="265" y="745" type="line"/>
      <point x="30" y="827" type="line"/>
    </contour>
  </outline>
</glyph>
<glyph name="quoteright" format="1">
  <advance width="287"/>
  <unicode hex="2019"/>
  <outline>
    <contour>
      <point x="51" y="808" type="line"/>
      <point x="69" y="768"/>
      <point x="73" y="736"/>
      <point x="73" y="689" type="curve" smooth="yes"/>
      <point x="73" y="610"/>
      <point x="58" y="526"/>
      <point x="30" y="480" type="curve"/>
      <point x="161" y="480" type="line"/>
      <point x="227" y="569"/>
      <point x="260" y="677"/>
      <point x="260" y="757" type="curve" smooth="yes"/>
      <point x="260" y="775"/>
      <point x="256" y="795"/>
      <point x="255" y="808" type="curve"/>
    </contour>
  </outline>
</glyph>
<glyph name="fraction" format="1">
  <advance width="365"/>
  <unicode hex="2044"/>
  <outline>
    <contour>
      <point x="-103" y="0" type="line"/>
      <point x="94" y="0" type="line"/>
      <point x="467" y="740" type="line"/>
      <point x="270" y="740" type="line"/>
    </contour>
  </outline>
</glyph>
<glyph name="zeroinferior" format="1">
  <advance width="638"/>
  <unicode hex="2080"/>
  <note>
    190/160
  </note>
  <outline>
    <contour>
      <point x="319" y="-106" type="curve" smooth="yes"/>
      <point x="503" y="-106"/>
      <point x="611" y="-15"/>
      <point x="611" y="173" type="curve" smooth="yes"/>
      <point x="611" y="361"/>
      <point x="503" y="453"/>
      <point x="319" y="453" type="curve" smooth="yes"/>
      <point x="136" y="453"/>
      <point x="27" y="361"/>
      <point x="27" y="173" type="curve" smooth="yes"/>
      <point x="27" y="-15"/>
      <point x="136" y="-106"/>
    </contour>
    <contour>
      <point x="319" y="54" type="curve" smooth="yes"/>
      <point x="246" y="54"/>
      <point x="217" y="75"/>
      <point x="217" y="173" type="curve" smooth="yes"/>
      <point x="217" y="271"/>
      <point x="246" y="293"/>
      <point x="319" y="293" type="curve" smooth="yes"/>
      <point x="390" y="293"/>
      <point x="421" y="271"/>
      <point x="421" y="173" type="curve" smooth="yes"/>
      <point x="421" y="75"/>
      <point x="390" y="54"/>
    </contour>
  </outline>
</glyph>
<glyph name="oneinferior" format="1">
  <advance width="432"/>
  <unicode hex="2081"/>
  <outline>
    <contour>
      <point x="177" y="-100" type="line"/>
      <point x="367" y="-100" type="line"/>
      <point x="367" y="446" type="line"/>
      <point x="228" y="446" type="line"/>
      <point x="7" y="355" type="line"/>
      <point x="7" y="335" type="line"/>
      <point x="29" y="233" type="line"/>
      <point x="32" y="233" type="line"/>
      <point x="177" y="254" type="line"/>
    </contour>
  </outline>
</glyph>
<glyph name="colonmonetary" format="1">
  <advance width="669"/>
  <unicode hex="20A1"/>
  <outline>
    <contour>
      <point x="237" y="-53" type="line"/>
      <point x="364" y="-53" type="line"/>
      <point x="618" y="807" type="line"/>
      <point x="491" y="807" type="line"/>
    </contour>
    <component base="C" xOffset="3"/>
  </outline>
</glyph>
<glyph name="uni20A6" format="1">
  <advance width="1002"/>
  <unicode hex="20A6"/>
  <outline>
    <contour>
      <point x="42" y="190" type="line"/>
      <point x="961" y="190" type="line"/>
      <point x="961" y="294" type="line"/>
      <point x="42" y="294" type="line"/>
    </contour>
    <contour>
      <point x="42" y="446" type="line"/>
      <point x="961" y="446" type="line"/>
      <point x="961" y="550" type="line"/>
      <point x="42" y="550" type="line"/>
    </contour>
    <component base="N" xOffset="58"/>
  </outline>
</glyph>
<glyph name="Omega" format="1">
  <advance width="853"/>
  <unicode hex="2126"/>
  <outline>
    <contour>
      <point x="43" y="0" type="line"/>
      <point x="386" y="0" type="line"/>
      <point x="386" y="132" type="line"/>
      <point x="354" y="161"/>
      <point x="274" y="274"/>
      <point x="274" y="408" type="curve" smooth="yes"/>
      <point x="274" y="508"/>
      <point x="329" y="566"/>
      <point x="427" y="566" type="curve" smooth="yes"/>
      <point x="528" y="566"/>
      <point x="586" y="508"/>
      <point x="586" y="408" type="curve" smooth="yes"/>
      <point x="586" y="274"/>
      <point x="551" y="198"/>
      <point x="468" y="132" type="curve"/>
      <point x="468" y="0" type="line"/>
      <point x="811" y="0" type="line"/>
      <point x="811" y="162" type="line"/>
      <point x="622" y="147" type="line"/>
      <point x="729" y="206"/>
      <point x="800" y="317"/>
      <point x="800" y="438" type="curve" smooth="yes"/>
      <point x="800" y="626"/>
      <point x="652" y="750"/>
      <point x="427" y="750" type="curve" smooth="yes"/>
      <point x="202" y="750"/>
      <point x="54" y="626"/>
      <point x="54" y="438" type="curve" smooth="yes"/>
      <point x="54" y="318"/>
      <point x="124" y="207"/>
      <point x="230" y="147" type="curve"/>
      <point x="43" y="162" type="line"/>
    </contour>
  </outline>
</glyph>
<glyph name="estimated" format="1">
  <advance width="647"/>
  <unicode hex="212E"/>
  <outline>
    <contour>
      <point x="330" y="1" type="curve" smooth="yes"/>
      <point x="434" y="1"/>
      <point x="513" y="48"/>
      <point x="588" y="154" type="curve"/>
      <point x="548" y="178" type="line"/>
      <point x="496" y="87"/>
      <point x="424" y="42"/>
      <point x="330" y="42" type="curve" smooth="yes"/>
      <point x="266" y="42"/>
      <point x="214" y="64"/>
      <point x="171" y="108" type="curve"/>
      <point x="171" y="313" type="line"/>
      <point x="618" y="313" type="line"/>
      <point x="609" y="504"/>
      <point x="497" y="626"/>
      <point x="330" y="626" type="curve" smooth="yes"/>
      <point x="161" y="626"/>
      <point x="43" y="497"/>
      <point x="43" y="313" type="curve" smooth="yes"/>
      <point x="43" y="135"/>
      <point x="166" y="1"/>
    </contour>
    <contour>
      <point x="171" y="354" type="line"/>
      <point x="171" y="518" type="line"/>
      <point x="214" y="563"/>
      <point x="266" y="586"/>
      <point x="329" y="586" type="curve" smooth="yes"/>
      <point x="390" y="586"/>
      <point x="443" y="563"/>
      <point x="490" y="518" type="curve"/>
      <point x="490" y="354" type="line"/>
    </contour>
  </outline>
</glyph>
<glyph name="arrowleft" format="1">
  <advance width="723"/>
  <unicode hex="2190"/>
  <outline>
    <contour>
      <point x="329" y="74" type="line"/>
      <point x="444" y="189" type="line"/>
      <point x="285" y="325" type="line"/>
      <point x="688" y="325" type="line"/>
      <point x="688" y="493" type="line"/>
      <point x="285" y="493" type="line"/>
      <point x="444" y="629" type="line"/>
      <point x="329" y="744" type="line"/>
      <point x="25" y="441" type="line"/>
      <point x="25" y="377" type="line"/>
    </contour>
  </outline>
</glyph>
<glyph name="arrowright" format="1">
  <advance width="723"/>
  <unicode hex="2192"/>
  <outline>
    <contour>
      <point x="394" y="74" type="line"/>
      <point x="698" y="377" type="line"/>
      <point x="698" y="441" type="line"/>
      <point x="394" y="744" type="line"/>
      <point x="279" y="629" type="line"/>
      <point x="437" y="493" type="line"/>
      <point x="35" y="493" type="line"/>
      <point x="35" y="325" type="line"/>
      <point x="437" y="325" type="line"/>
      <point x="279" y="189" type="line"/>
    </contour>
  </outline>
</glyph>
<glyph name="minus" format="1">
  <advance width="586"/>
  <unicode hex="2212"/>
  <outline>
    <contour>
      <point x="56" y="303" type="line"/>
      <point x="530" y="303" type="line"/>
      <point x="530" y="437" type="line"/>
      <point x="56" y="437" type="line"/>
    </contour>
  </outline>
</glyph>
<glyph name="uni2215" format="1">
  <advance width="534"/>
  <unicode hex="2215"/>
  <outline>
    <contour>
      <point x="-18" y="0" type="line"/>
      <point x="179" y="0" type="line"/>
      <point x="552" y="740" type="line"/>
      <point x="355" y="740" type="line"/>
    </contour>
  </outline>
</glyph>
<glyph name="approxequal" format="1">
  <advance width="557"/>
  <unicode hex="2248"/>
  <outline>
    <contour>
      <point x="57" y="363" type="line"/>
      <point x="100" y="384"/>
      <point x="142" y="398"/>
      <point x="194" y="398" type="curve" smooth="yes"/>
      <point x="259" y="398"/>
      <point x="305" y="360"/>
      <point x="369" y="360" type="curve" smooth="yes"/>
      <point x="421" y="360"/>
      <point x="463" y="386"/>
      <point x="502" y="407" type="curve"/>
      <point x="502" y="528" type="line"/>
      <point x="461" y="507"/>
      <point x="421" y="492"/>
      <point x="369" y="492" type="curve" smooth="yes"/>
      <point x="305" y="492"/>
      <point x="259" y="530"/>
      <point x="194" y="530" type="curve" smooth="yes"/>
      <point x="142" y="530"/>
      <point x="100" y="505"/>
      <point x="57" y="487" type="curve"/>
    </contour>
    <contour>
      <point x="57" y="171" type="line"/>
      <point x="100" y="192"/>
      <point x="142" y="206"/>
      <point x="194" y="206" type="curve" smooth="yes"/>
      <point x="259" y="206"/>
      <point x="305" y="168"/>
      <point x="369" y="168" type="curve" smooth="yes"/>
      <point x="421" y="168"/>
      <point x="463" y="194"/>
      <point x="502" y="215" type="curve"/>
      <point x="502" y="336" type="line"/>
      <point x="461" y="315"/>
      <point x="421" y="300"/>
      <point x="369" y="300" type="curve" smooth="yes"/>
      <point x="305" y="300"/>
      <point x="259" y="338"/>
      <point x="194" y="338" type="curve" smooth="yes"/>
      <point x="142" y="338"/>
      <point x="100" y="313"/>
      <point x="57" y="295" type="curve"/>
    </contour>
  </outline>
</glyph>
<glyph name="Aacute.sc" format="1">
  <advance width="763"/>
  <outline>
    <contour>
      <point x="-4" y="0" type="line"/>
      <point x="213" y="0" type="line"/>
      <point x="250" y="90" type="line"/>
      <point x="512" y="90" type="line"/>
      <point x="550" y="0" type="line"/>
      <point x="767" y="0" type="line"/>
      <point x="767" y="11" type="line"/>
      <point x="545" y="577" type="line"/>
      <point x="218" y="577" type="line"/>
      <point x="-4" y="11" type="line"/>
    </contour>
    <contour>
      <point x="296" y="245" type="line"/>
      <point x="324" y="311" type="line"/>
      <point x="371" y="429" type="line"/>
      <point x="390" y="429" type="line"/>
      <point x="438" y="313" type="line"/>
      <point x="466" y="245" type="line"/>
    </contour>
    <contour>
      <point x="455" y="631" type="line"/>
      <point x="577" y="802" type="line"/>
      <point x="354" y="802" type="line"/>
      <point x="299" y="640" type="line"/>
    </contour>
  </outline>
</glyph>
<glyph name="Abreve.sc" format="1">
  <advance width="763"/>
  <outline>
    <contour>
      <point x="381" y="633" type="curve" smooth="yes"/>
      <point x="568" y="633"/>
      <point x="619" y="706"/>
      <point x="619" y="797" type="curve"/>
      <point x="479" y="797" type="line"/>
      <point x="479" y="755"/>
      <point x="462" y="729"/>
      <point x="381" y="729" type="curve" smooth="yes"/>
      <point x="301" y="729"/>
      <point x="283" y="755"/>
      <point x="283" y="797" type="curve"/>
      <point x="142" y="797" type="line"/>
      <point x="142" y="710"/>
      <point x="193" y="633"/>
    </contour>
    <contour>
      <point x="-4" y="0" type="line"/>
      <point x="213" y="0" type="line"/>
      <point x="250" y="90" type="line"/>
      <point x="512" y="90" type="line"/>
      <point x="550" y="0" type="line"/>
      <point x="767" y="0" type="line"/>
      <point x="767" y="11" type="line"/>
      <point x="545" y="577" type="line"/>
      <point x="218" y="577" type="line"/>
      <point x="-4" y="11" type="line"/>
    </contour>
    <contour>
      <point x="296" y="245" type="line"/>
      <point x="324" y="311" type="line"/>
      <point x="371" y="429" type="line"/>
      <point x="390" y="429" type="line"/>
      <point x="438" y="313" type="line"/>
      <point x="466" y="245" type="line"/>
    </contour>
  </outline>
</glyph>
<glyph name="Cdotaccent.sc" format="1">
  <advance width="609"/>
  <outline>
    <contour>
      <point x="426" y="-14" type="curve" smooth="yes"/>
      <point x="472" y="-14"/>
      <point x="519" y="-12"/>
      <point x="571" y="-5" type="curve"/>
      <point x="571" y="172" type="line"/>
      <point x="542" y="169"/>
      <point x="465" y="166"/>
      <point x="426" y="166" type="curve" smooth="yes"/>
      <point x="286" y="166"/>
      <point x="262" y="174"/>
      <point x="262" y="288" type="curve" smooth="yes"/>
      <point x="262" y="407"/>
      <point x="284" y="412"/>
      <point x="428" y="412" type="curve" smooth="yes"/>
      <point x="460" y="412"/>
      <point x="474" y="413"/>
      <point x="571" y="407" type="curve"/>
      <point x="571" y="582" type="line"/>
      <point x="487" y="589"/>
      <point x="442" y="590"/>
      <point x="401" y="590" type="curve" smooth="yes"/>
      <point x="151" y="590"/>
      <point x="32" y="494"/>
      <point x="32" y="288" type="curve" smooth="yes"/>
      <point x="32" y="80"/>
      <point x="156" y="-14"/>
    </contour>
    <contour>
      <point x="364" y="613" type="curve" smooth="yes"/>
      <point x="449" y="613"/>
      <point x="478" y="649"/>
      <point x="478" y="722" type="curve" smooth="yes"/>
      <point x="478" y="794"/>
      <point x="449" y="831"/>
      <point x="364" y="831" type="curve" smooth="yes"/>
      <point x="281" y="831"/>
      <point x="249" y="797"/>
      <point x="249" y="722" type="curve" smooth="yes"/>
      <point x="249" y="645"/>
      <point x="281" y="613"/>
    </contour>
  </outline>
</glyph>
<glyph name="Eacute.sc" format="1">
  <advance width="681"/>
  <outline>
    <contour>
      <point x="63" y="0" type="line"/>
      <point x="643" y="0" type="line"/>
      <point x="643" y="160" type="line"/>
      <point x="286" y="160" type="line"/>
      <point x="286" y="222" type="line"/>
      <point x="596" y="222" type="line"/>
      <point x="596" y="356" type="line"/>
      <point x="286" y="356" type="line"/>
      <point x="286" y="418" type="line"/>
      <point x="634" y="418" type="line"/>
      <point x="634" y="577" type="line"/>
      <point x="63" y="577" type="line"/>
    </contour>
    <contour>
      <point x="412" y="631" type="line"/>
      <point x="534" y="802" type="line"/>
      <point x="311" y="802" type="line"/>
      <point x="256" y="640" type="line"/>
    </contour>
  </outline>
</glyph>
<glyph name="Ebreve.sc" format="1">
  <advance width="681"/>
  <outline>
    <contour>
      <point x="337" y="633" type="curve" smooth="yes"/>
      <point x="524" y="633"/>
      <point x="575" y="706"/>
      <point x="575" y="797" type="curve"/>
      <point x="435" y="797" type="line"/>
      <point x="435" y="755"/>
      <point x="418" y="729"/>
      <point x="337" y="729" type="curve" smooth="yes"/>
      <point x="257" y="729"/>
      <point x="239" y="755"/>
      <point x="239" y="797" type="curve"/>
      <point x="98" y="797" type="line"/>
      <point x="98" y="710"/>
      <point x="149" y="633"/>
    </contour>
    <contour>
      <point x="63" y="0" type="line"/>
      <point x="643" y="0" type="line"/>
      <point x="643" y="160" type="line"/>
      <point x="286" y="160" type="line"/>
      <point x="286" y="222" type="line"/>
      <point x="596" y="222" type="line"/>
      <point x="596" y="356" type="line"/>
      <point x="286" y="356" type="line"/>
      <point x="286" y="418" type="line"/>
      <point x="634" y="418" type="line"/>
      <point x="634" y="577" type="line"/>
      <point x="63" y="577" type="line"/>
    </contour>
  </outline>
</glyph>
<glyph name="Ecircumflex.sc" format="1">
  <advance width="681"/>
  <outline>
    <contour>
      <point x="63" y="0" type="line"/>
      <point x="643" y="0" type="line"/>
      <point x="643" y="160" type="line"/>
      <point x="286" y="160" type="line"/>
      <point x="286" y="222" type="line"/>
      <point x="596" y="222" type="line"/>
      <point x="596" y="356" type="line"/>
      <point x="286" y="356" type="line"/>
      <point x="286" y="418" type="line"/>
      <point x="634" y="418" type="line"/>
      <point x="634" y="577" type="line"/>
      <point x="63" y="577" type="line"/>
    </contour>
    <contour>
      <point x="148" y="618" type="line"/>
      <point x="367" y="684" type="line"/>
      <point x="586" y="618" type="line"/>
      <point x="586" y="755" type="line"/>
      <point x="364" y="822" type="line"/>
      <point x="148" y="755" type="line"/>
    </contour>
  </outline>
</glyph>
<glyph name="Edblgrave.sc" format="1">
  <advance width="681"/>
  <outline>
    <contour>
      <point x="63" y="0" type="line"/>
      <point x="643" y="0" type="line"/>
      <point x="643" y="160" type="line"/>
      <point x="286" y="160" type="line"/>
      <point x="286" y="222" type="line"/>
      <point x="596" y="222" type="line"/>
      <point x="596" y="356" type="line"/>
      <point x="286" y="356" type="line"/>
      <point x="286" y="418" type="line"/>
      <point x="634" y="418" type="line"/>
      <point x="634" y="577" type="line"/>
      <point x="63" y="577" type="line"/>
    </contour>
    <contour>
      <point x="142" y="633" type="line"/>
      <point x="295" y="640" type="line"/>
      <point x="241" y="804" type="line"/>
      <point x="20" y="804" type="line"/>
    </contour>
    <contour>
      <point x="378" y="633" type="line"/>
      <point x="532" y="640" type="line"/>
      <point x="477" y="804" type="line"/>
      <point x="256" y="804" type="line"/>
    </contour>
  </outline>
</glyph>
<glyph name="Edieresis.sc" format="1">
  <advance width="681"/>
  <outline>
    <contour>
      <point x="213" y="612" type="curve" smooth="yes"/>
      <point x="299" y="612"/>
      <point x="327" y="648"/>
      <point x="327" y="721" type="curve" smooth="yes"/>
      <point x="327" y="793"/>
      <point x="299" y="830"/>
      <point x="213" y="830" type="curve" smooth="yes"/>
      <point x="130" y="830"/>
      <point x="98" y="796"/>
      <point x="98" y="721" type="curve" smooth="yes"/>
      <point x="98" y="644"/>
      <point x="130" y="612"/>
    </contour>
    <contour>
      <point x="508" y="612" type="curve" smooth="yes"/>
      <point x="593" y="612"/>
      <point x="622" y="648"/>
      <point x="622" y="721" type="curve" smooth="yes"/>
      <point x="622" y="793"/>
      <point x="593" y="830"/>
      <point x="508" y="830" type="curve" smooth="yes"/>
      <point x="425" y="830"/>
      <point x="394" y="796"/>
      <point x="394" y="721" type="curve" smooth="yes"/>
      <point x="394" y="644"/>
      <point x="425" y="612"/>
    </contour>
    <contour>
      <point x="63" y="0" type="line"/>
      <point x="643" y="0" type="line"/>
      <point x="643" y="160" type="line"/>
      <point x="286" y="160" type="line"/>
      <point x="286" y="222" type="line"/>
      <point x="596" y="222" type="line"/>
      <point x="596" y="356" type="line"/>
      <point x="286" y="356" type="line"/>
      <point x="286" y="418" type="line"/>
      <point x="634" y="418" type="line"/>
      <point x="634" y="577" type="line"/>
      <point x="63" y="577" type="line"/>
    </contour>
  </outline>
</glyph>
<glyph name="Emacron.sc" format="1">
  <advance width="681"/>
  <outline>
    <contour>
      <point x="63" y="0" type="line"/>
      <point x="643" y="0" type="line"/>
      <point x="643" y="160" type="line"/>
      <point x="286" y="160" type="line"/>
      <point x="286" y="222" type="line"/>
      <point x="596" y="222" type="line"/>
      <point x="596" y="356" type="line"/>
      <point x="286" y="356" type="line"/>
      <point x="286" y="418" type="line"/>
      <point x="634" y="418" type="line"/>
      <point x="634" y="577" type="line"/>
      <point x="63" y="577" type="line"/>
    </contour>
    <contour>
      <point x="135" y="658" type="line"/>
      <point x="569" y="658" type="line"/>
      <point x="569" y="796" type="line"/>
      <point x="135" y="796" type="line"/>
    </contour>
  </outline>
</glyph>
<glyph name="Eng.sc" format="1">
  <advance width="788"/>
  <outline>
    <contour>
      <point x="608" y="-179" type="line"/>
      <point x="684" y="-69"/>
      <point x="727" y="39"/>
      <point x="727" y="119" type="curve" smooth="yes"/>
      <point x="727" y="577" type="line"/>
      <point x="531" y="577" type="line"/>
      <point x="531" y="295" type="line"/>
      <point x="522" y="295" type="line"/>
      <point x="459" y="360" type="line"/>
      <point x="230" y="577" type="line"/>
      <point x="63" y="577" type="line"/>
      <point x="63" y="0" type="line"/>
      <point x="259" y="0" type="line"/>
      <point x="259" y="282" type="line"/>
      <point x="268" y="282" type="line"/>
      <point x="345" y="199" type="line"/>
      <point x="530" y="26" type="line"/>
      <point x="522" y="-15"/>
      <point x="509" y="-44"/>
      <point x="463" y="-131" type="curve"/>
    </contour>
  </outline>
</glyph>
<glyph name="Iacute.sc" format="1">
  <advance width="349"/>
  <outline>
    <contour>
      <point x="63" y="0" type="line"/>
      <point x="286" y="0" type="line"/>
      <point x="286" y="577" type="line"/>
      <point x="63" y="577" type="line"/>
    </contour>
    <contour>
      <point x="249" y="631" type="line"/>
      <point x="371" y="802" type="line"/>
      <point x="148" y="802" type="line"/>
      <point x="93" y="640" type="line"/>
    </contour>
  </outline>
</glyph>
<glyph name="Ibreve.sc" format="1">
  <advance width="349"/>
  <outline>
    <contour>
      <point x="63" y="0" type="line"/>
      <point x="286" y="0" type="line"/>
      <point x="286" y="577" type="line"/>
      <point x="63" y="577" type="line"/>
    </contour>
    <contour>
      <point x="174" y="633" type="curve" smooth="yes"/>
      <point x="361" y="633"/>
      <point x="412" y="706"/>
      <point x="412" y="797" type="curve"/>
      <point x="272" y="797" type="line"/>
      <point x="272" y="755"/>
      <point x="255" y="729"/>
      <point x="174" y="729" type="curve" smooth="yes"/>
      <point x="94" y="729"/>
      <point x="76" y="755"/>
      <point x="76" y="797" type="curve"/>
      <point x="-65" y="797" type="line"/>
      <point x="-65" y="710"/>
      <point x="-14" y="633"/>
    </contour>
  </outline>
</glyph>
<glyph name="Idblgrave.sc" format="1">
  <advance width="349"/>
  <outline>
    <contour>
      <point x="63" y="0" type="line"/>
      <point x="286" y="0" type="line"/>
      <point x="286" y="577" type="line"/>
      <point x="63" y="577" type="line"/>
    </contour>
    <contour>
      <point x="150" y="640" type="line"/>
      <point x="96" y="804" type="line"/>
      <point x="-125" y="804" type="line"/>
      <point x="-3" y="633" type="line"/>
    </contour>
    <contour>
      <point x="387" y="640" type="line"/>
      <point x="332" y="804" type="line"/>
      <point x="111" y="804" type="line"/>
      <point x="233" y="633" type="line"/>
    </contour>
  </outline>
</glyph>
<glyph name="Idotbelow.sc" format="1">
  <advance width="349"/>
  <outline>
    <contour>
      <point x="63" y="0" type="line"/>
      <point x="286" y="0" type="line"/>
      <point x="286" y="577" type="line"/>
      <point x="63" y="577" type="line"/>
    </contour>
    <contour>
      <point x="175" y="-181" type="curve" smooth="yes"/>
      <point x="240" y="-181"/>
      <point x="260" y="-154"/>
      <point x="260" y="-103" type="curve" smooth="yes"/>
      <point x="260" y="-52"/>
      <point x="240" y="-24"/>
      <point x="175" y="-24" type="curve" smooth="yes"/>
      <point x="113" y="-24"/>
      <point x="90" y="-48"/>
      <point x="90" y="-103" type="curve" smooth="yes"/>
      <point x="90" y="-157"/>
      <point x="113" y="-181"/>
    </contour>
  </outline>
</glyph>
<glyph name="Igrave.sc" format="1">
  <advance width="349"/>
  <outline>
    <contour>
      <point x="63" y="0" type="line"/>
      <point x="286" y="0" type="line"/>
      <point x="286" y="577" type="line"/>
      <point x="63" y="577" type="line"/>
    </contour>
    <contour>
      <point x="274" y="638" type="line"/>
      <point x="220" y="802" type="line"/>
      <point x="-4" y="802" type="line"/>
      <point x="119" y="631" type="line"/>
    </contour>
  </outline>
</glyph>
<glyph name="Iinvertedbreve.sc" format="1">
  <advance width="349"/>
  <outline>
    <contour>
      <point x="63" y="0" type="line"/>
      <point x="286" y="0" type="line"/>
      <point x="286" y="577" type="line"/>
      <point x="63" y="577" type="line"/>
    </contour>
    <contour>
      <point x="417" y="643" type="line"/>
      <point x="417" y="733"/>
      <point x="366" y="807"/>
      <point x="179" y="807" type="curve" smooth="yes"/>
      <point x="-9" y="807"/>
      <point x="-60" y="729"/>
      <point x="-60" y="643" type="curve"/>
      <point x="81" y="643" type="line"/>
      <point x="81" y="684"/>
      <point x="99" y="710"/>
      <point x="179" y="710" type="curve" smooth="yes"/>
      <point x="260" y="710"/>
      <point x="277" y="684"/>
      <point x="277" y="643" type="curve"/>
    </contour>
  </outline>
</glyph>
<glyph name="Imacron.sc" format="1">
  <advance width="349"/>
  <outline>
    <contour>
      <point x="63" y="0" type="line"/>
      <point x="286" y="0" type="line"/>
      <point x="286" y="577" type="line"/>
      <point x="63" y="577" type="line"/>
    </contour>
    <contour>
      <point x="-34" y="658" type="line"/>
      <point x="400" y="658" type="line"/>
      <point x="400" y="796" type="line"/>
      <point x="-34" y="796" type="line"/>
    </contour>
  </outline>
</glyph>
<glyph name="Iogonek.sc" format="1">
  <advance width="349"/>
  <outline>
    <contour>
      <point x="63" y="0" type="line"/>
      <point x="101" y="0" type="line"/>
      <point x="68" y="-11"/>
      <point x="34" y="-51"/>
      <point x="34" y="-91" type="curve" smooth="yes"/>
      <point x="34" y="-138"/>
      <point x="96" y="-172"/>
      <point x="198" y="-172" type="curve" smooth="yes"/>
      <point x="226" y="-172"/>
      <point x="258" y="-170"/>
      <point x="288" y="-162" type="curve"/>
      <point x="288" y="-51" type="line"/>
      <point x="264" y="-56"/>
      <point x="209" y="-61"/>
      <point x="190" y="-61" type="curve" smooth="yes"/>
      <point x="176" y="-61"/>
      <point x="171" y="-60"/>
      <point x="171" y="-54" type="curve" smooth="yes"/>
      <point x="171" y="-47"/>
      <point x="175" y="-37"/>
      <point x="286" y="0" type="curve"/>
      <point x="286" y="577" type="line"/>
      <point x="63" y="577" type="line"/>
    </contour>
  </outline>
</glyph>
<glyph name="J.sc" format="1">
  <advance width="348"/>
  <outline>
    <contour>
      <point x="116" y="760" type="move" name="topUC"/>
    </contour>
    <contour>
      <point x="139" y="-180" type="line"/>
      <point x="250" y="-55"/>
      <point x="288" y="32"/>
      <point x="288" y="145" type="curve" smooth="yes"/>
      <point x="288" y="577" type="line"/>
      <point x="65" y="577" type="line"/>
      <point x="65" y="162" type="line" smooth="yes"/>
      <point x="65" y="54"/>
      <point x="49" y="-12"/>
      <point x="-2" y="-121" type="curve"/>
    </contour>
  </outline>
</glyph>
<glyph name="Lcommaaccent.sc" format="1">
  <advance width="605"/>
  <outline>
    <contour>
      <point x="63" y="0" type="line"/>
      <point x="588" y="0" type="line"/>
      <point x="588" y="164" type="line"/>
      <point x="286" y="164" type="line"/>
      <point x="286" y="577" type="line"/>
      <point x="63" y="577" type="line"/>
    </contour>
    <contour>
      <point x="144" y="-172" type="line"/>
      <point x="306" y="-172" type="line"/>
      <point x="402" y="-55" type="line"/>
      <point x="178" y="-55" type="line"/>
    </contour>
  </outline>
</glyph>
<glyph name="Lslash.sc" format="1">
  <advance width="620"/>
  <outline>
    <contour>
      <point x="14" y="176" type="line"/>
      <point x="78" y="198" type="line"/>
      <point x="78" y="0" type="line"/>
      <point x="603" y="0" type="line"/>
      <point x="603" y="164" type="line"/>
      <point x="301" y="164" type="line"/>
      <point x="301" y="274" type="line"/>
      <point x="417" y="314" type="line"/>
      <point x="417" y="467" type="line"/>
      <point x="301" y="427" type="line"/>
      <point x="301" y="577" type="line"/>
      <point x="78" y="577" type="line"/>
      <point x="78" y="351" type="line"/>
      <point x="14" y="329" type="line"/>
    </contour>
  </outline>
</glyph>
<glyph name="Ndotaccent.sc" format="1">
  <advance width="790"/>
  <outline>
    <contour>
      <point x="63" y="0" type="line"/>
      <point x="259" y="0" type="line"/>
      <point x="259" y="282" type="line"/>
      <point x="268" y="282" type="line"/>
      <point x="345" y="199" type="line"/>
      <point x="560" y="0" type="line"/>
      <point x="727" y="0" type="line"/>
      <point x="727" y="577" type="line"/>
      <point x="531" y="577" type="line"/>
      <point x="531" y="295" type="line"/>
      <point x="522" y="295" type="line"/>
      <point x="459" y="360" type="line"/>
      <point x="230" y="577" type="line"/>
      <point x="63" y="577" type="line"/>
    </contour>
    <contour>
      <point x="401" y="613" type="curve" smooth="yes"/>
      <point x="486" y="613"/>
      <point x="515" y="649"/>
      <point x="515" y="722" type="curve" smooth="yes"/>
      <point x="515" y="794"/>
      <point x="486" y="831"/>
      <point x="401" y="831" type="curve" smooth="yes"/>
      <point x="318" y="831"/>
      <point x="286" y="797"/>
      <point x="286" y="722" type="curve" smooth="yes"/>
      <point x="286" y="645"/>
      <point x="318" y="613"/>
    </contour>
  </outline>
</glyph>
<glyph name="OE.sc" format="1">
  <advance width="1152"/>
  <outline>
    <contour>
      <point x="400" y="-8" type="curve" smooth="yes"/>
      <point x="449" y="-8"/>
      <point x="488" y="-6"/>
      <point x="531" y="0" type="curve"/>
      <point x="1114" y="0" type="line"/>
      <point x="1114" y="160" type="line"/>
      <point x="754" y="160" type="line"/>
      <point x="754" y="222" type="line"/>
      <point x="1066" y="222" type="line"/>
      <point x="1066" y="356" type="line"/>
      <point x="754" y="356" type="line"/>
      <point x="754" y="418" type="line"/>
      <point x="1105" y="418" type="line"/>
      <point x="1105" y="577" type="line"/>
      <point x="531" y="577" type="line"/>
      <point x="492" y="581"/>
      <point x="454" y="585"/>
      <point x="400" y="585" type="curve" smooth="yes"/>
      <point x="160" y="585"/>
      <point x="32" y="481"/>
      <point x="32" y="288" type="curve" smooth="yes"/>
      <point x="32" y="96"/>
      <point x="161" y="-8"/>
    </contour>
    <contour>
      <point x="399" y="165" type="curve" smooth="yes"/>
      <point x="287" y="165"/>
      <point x="260" y="172"/>
      <point x="260" y="288" type="curve" smooth="yes"/>
      <point x="260" y="401"/>
      <point x="290" y="412"/>
      <point x="399" y="412" type="curve" smooth="yes"/>
      <point x="458" y="412"/>
      <point x="500" y="410"/>
      <point x="531" y="409" type="curve"/>
      <point x="531" y="168" type="line"/>
      <point x="499" y="166"/>
      <point x="456" y="165"/>
    </contour>
  </outline>
</glyph>
<glyph name="O.sc" format="1">
  <advance width="801"/>
  <outline>
    <contour>
      <point x="315" y="-10" type="move" name="ogonek"/>
    </contour>
    <contour>
      <point x="315" y="760" type="move" name="topUC"/>
    </contour>
    <contour>
      <point x="315" y="0" type="move" name="bottom"/>
    </contour>
    <contour>
      <point x="401" y="-8" type="curve" smooth="yes"/>
      <point x="638" y="-8"/>
      <point x="770" y="98"/>
      <point x="770" y="288" type="curve" smooth="yes"/>
      <point x="770" y="479"/>
      <point x="639" y="585"/>
      <point x="401" y="585" type="curve" smooth="yes"/>
      <point x="160" y="585"/>
      <point x="31" y="481"/>
      <point x="31" y="288" type="curve" smooth="yes"/>
      <point x="31" y="96"/>
      <point x="162" y="-8"/>
    </contour>
    <contour>
      <point x="401" y="165" type="curve" smooth="yes"/>
      <point x="277" y="165"/>
      <point x="259" y="180"/>
      <point x="259" y="288" type="curve" smooth="yes"/>
      <point x="259" y="393"/>
      <point x="281" y="412"/>
      <point x="401" y="412" type="curve" smooth="yes"/>
      <point x="519" y="412"/>
      <point x="543" y="391"/>
      <point x="543" y="288" type="curve" smooth="yes"/>
      <point x="543" y="179"/>
      <point x="527" y="165"/>
    </contour>
  </outline>
</glyph>
<glyph name="Odieresis.sc" format="1">
  <advance width="802"/>
  <outline>
    <contour>
      <point x="402" y="-8" type="curve" smooth="yes"/>
      <point x="639" y="-8"/>
      <point x="771" y="98"/>
      <point x="771" y="288" type="curve" smooth="yes"/>
      <point x="771" y="479"/>
      <point x="640" y="585"/>
      <point x="402" y="585" type="curve" smooth="yes"/>
      <point x="161" y="585"/>
      <point x="32" y="481"/>
      <point x="32" y="288" type="curve" smooth="yes"/>
      <point x="32" y="96"/>
      <point x="163" y="-8"/>
    </contour>
    <contour>
      <point x="402" y="165" type="curve" smooth="yes"/>
      <point x="278" y="165"/>
      <point x="260" y="180"/>
      <point x="260" y="288" type="curve" smooth="yes"/>
      <point x="260" y="393"/>
      <point x="282" y="412"/>
      <point x="402" y="412" type="curve" smooth="yes"/>
      <point x="520" y="412"/>
      <point x="544" y="391"/>
      <point x="544" y="288" type="curve" smooth="yes"/>
      <point x="544" y="179"/>
      <point x="528" y="165"/>
    </contour>
    <contour>
      <point x="245" y="612" type="curve" smooth="yes"/>
      <point x="326" y="612"/>
      <point x="359" y="644"/>
      <point x="359" y="721" type="curve" smooth="yes"/>
      <point x="359" y="798"/>
      <point x="325" y="830"/>
      <point x="245" y="830" type="curve" smooth="yes"/>
      <point x="164" y="830"/>
      <point x="130" y="798"/>
      <point x="130" y="721" type="curve" smooth="yes"/>
      <point x="130" y="643"/>
      <point x="163" y="612"/>
    </contour>
    <contour>
      <point x="540" y="612" type="curve" smooth="yes"/>
      <point x="621" y="612"/>
      <point x="654" y="644"/>
      <point x="654" y="721" type="curve" smooth="yes"/>
      <point x="654" y="798"/>
      <point x="620" y="830"/>
      <point x="540" y="830" type="curve" smooth="yes"/>
      <point x="459" y="830"/>
      <point x="426" y="799"/>
      <point x="426" y="721" type="curve" smooth="yes"/>
      <point x="426" y="642"/>
      <point x="458" y="612"/>
    </contour>
  </outline>
</glyph>
<glyph name="Odotbelow.sc" format="1">
  <advance width="801"/>
  <outline>
    <contour>
      <point x="401" y="-8" type="curve" smooth="yes"/>
      <point x="639" y="-8"/>
      <point x="770" y="98"/>
      <point x="770" y="288" type="curve" smooth="yes"/>
      <point x="770" y="479"/>
      <point x="639" y="585"/>
      <point x="401" y="585" type="curve" smooth="yes"/>
      <point x="160" y="585"/>
      <point x="31" y="481"/>
      <point x="31" y="288" type="curve" smooth="yes"/>
      <point x="31" y="97"/>
      <point x="161" y="-8"/>
    </contour>
    <contour>
      <point x="401" y="165" type="curve" smooth="yes"/>
      <point x="286" y="165"/>
      <point x="259" y="172"/>
      <point x="259" y="288" type="curve" smooth="yes"/>
      <point x="259" y="401"/>
      <point x="290" y="412"/>
      <point x="401" y="412" type="curve" smooth="yes"/>
      <point x="511" y="412"/>
      <point x="543" y="398"/>
      <point x="543" y="288" type="curve" smooth="yes"/>
      <point x="543" y="171"/>
      <point x="517" y="165"/>
    </contour>
    <contour>
      <point x="405" y="-181" type="curve" smooth="yes"/>
      <point x="471" y="-181"/>
      <point x="490" y="-154"/>
      <point x="490" y="-103" type="curve" smooth="yes"/>
      <point x="490" y="-52"/>
      <point x="471" y="-24"/>
      <point x="405" y="-24" type="curve" smooth="yes"/>
      <point x="344" y="-24"/>
      <point x="320" y="-48"/>
      <point x="320" y="-103" type="curve" smooth="yes"/>
      <point x="320" y="-157"/>
      <point x="344" y="-181"/>
    </contour>
  </outline>
</glyph>
<glyph name="Oinvertedbreve.sc" format="1">
  <advance width="801"/>
  <outline>
    <contour>
      <point x="401" y="-8" type="curve" smooth="yes"/>
      <point x="639" y="-8"/>
      <point x="770" y="98"/>
      <point x="770" y="288" type="curve" smooth="yes"/>
      <point x="770" y="479"/>
      <point x="639" y="585"/>
      <point x="401" y="585" type="curve" smooth="yes"/>
      <point x="160" y="585"/>
      <point x="31" y="481"/>
      <point x="31" y="288" type="curve" smooth="yes"/>
      <point x="31" y="97"/>
      <point x="161" y="-8"/>
    </contour>
    <contour>
      <point x="401" y="165" type="curve" smooth="yes"/>
      <point x="286" y="165"/>
      <point x="259" y="172"/>
      <point x="259" y="288" type="curve" smooth="yes"/>
      <point x="259" y="401"/>
      <point x="290" y="412"/>
      <point x="401" y="412" type="curve" smooth="yes"/>
      <point x="511" y="412"/>
      <point x="543" y="398"/>
      <point x="543" y="288" type="curve" smooth="yes"/>
      <point x="543" y="171"/>
      <point x="517" y="165"/>
    </contour>
    <contour>
      <point x="637" y="643" type="line"/>
      <point x="637" y="733"/>
      <point x="586" y="807"/>
      <point x="399" y="807" type="curve" smooth="yes"/>
      <point x="211" y="807"/>
      <point x="160" y="729"/>
      <point x="160" y="643" type="curve"/>
      <point x="301" y="643" type="line"/>
      <point x="301" y="684"/>
      <point x="319" y="710"/>
      <point x="399" y="710" type="curve" smooth="yes"/>
      <point x="480" y="710"/>
      <point x="497" y="684"/>
      <point x="497" y="643" type="curve"/>
    </contour>
  </outline>
</glyph>
<glyph name="Scircumflex.sc" format="1">
  <advance width="676"/>
  <outline>
    <contour>
      <point x="331" y="-10" type="curve" smooth="yes"/>
      <point x="549" y="-10"/>
      <point x="650" y="53"/>
      <point x="650" y="190" type="curve" smooth="yes"/>
      <point x="650" y="292"/>
      <point x="564" y="349"/>
      <point x="388" y="362" type="curve" smooth="yes"/>
      <point x="317" y="367"/>
      <point x="281" y="377"/>
      <point x="281" y="394" type="curve" smooth="yes"/>
      <point x="281" y="411"/>
      <point x="306" y="416"/>
      <point x="385" y="416" type="curve" smooth="yes"/>
      <point x="454" y="416"/>
      <point x="542" y="406"/>
      <point x="611" y="390" type="curve"/>
      <point x="611" y="559" type="line"/>
      <point x="484" y="579"/>
      <point x="427" y="585"/>
      <point x="358" y="585" type="curve" smooth="yes"/>
      <point x="161" y="585"/>
      <point x="45" y="514"/>
      <point x="45" y="393" type="curve" smooth="yes"/>
      <point x="45" y="277"/>
      <point x="129" y="220"/>
      <point x="317" y="208" type="curve"/>
      <point x="394" y="200"/>
      <point x="414" y="194"/>
      <point x="414" y="179" type="curve" smooth="yes"/>
      <point x="414" y="166"/>
      <point x="380" y="159"/>
      <point x="317" y="159" type="curve" smooth="yes"/>
      <point x="234" y="159"/>
      <point x="149" y="168"/>
      <point x="39" y="187" type="curve"/>
      <point x="39" y="12" type="line"/>
      <point x="128" y="-1"/>
      <point x="251" y="-10"/>
    </contour>
    <contour>
      <point x="130" y="618" type="line"/>
      <point x="349" y="684" type="line"/>
      <point x="568" y="618" type="line"/>
      <point x="568" y="755" type="line"/>
      <point x="346" y="822" type="line"/>
      <point x="130" y="755" type="line"/>
    </contour>
  </outline>
</glyph>
<glyph name="Tbar.sc" format="1">
  <advance width="664"/>
  <outline>
    <contour>
      <point x="76" y="220" type="line"/>
      <point x="220" y="220" type="line"/>
      <point x="220" y="0" type="line"/>
      <point x="443" y="0" type="line"/>
      <point x="443" y="220" type="line"/>
      <point x="588" y="220" type="line"/>
      <point x="588" y="337" type="line"/>
      <point x="443" y="337" type="line"/>
      <point x="443" y="413" type="line"/>
      <point x="636" y="413" type="line"/>
      <point x="636" y="577" type="line"/>
      <point x="28" y="577" type="line"/>
      <point x="28" y="413" type="line"/>
      <point x="220" y="413" type="line"/>
      <point x="220" y="337" type="line"/>
      <point x="76" y="337" type="line"/>
    </contour>
  </outline>
</glyph>
<glyph name="Tcaron.sc" format="1">
  <advance width="656"/>
  <outline>
    <contour>
      <point x="216" y="0" type="line"/>
      <point x="439" y="0" type="line"/>
      <point x="439" y="413" type="line"/>
      <point x="632" y="413" type="line"/>
      <point x="632" y="577" type="line"/>
      <point x="24" y="577" type="line"/>
      <point x="24" y="413" type="line"/>
      <point x="216" y="413" type="line"/>
    </contour>
    <contour>
      <point x="108" y="684" type="line"/>
      <point x="325" y="618" type="line"/>
      <point x="547" y="684" type="line"/>
      <point x="547" y="822" type="line"/>
      <point x="328" y="755" type="line"/>
      <point x="108" y="822" type="line"/>
    </contour>
  </outline>
</glyph>
<glyph name="Tdotbelow.sc" format="1">
  <advance width="656"/>
  <outline>
    <contour>
      <point x="216" y="0" type="line"/>
      <point x="439" y="0" type="line"/>
      <point x="439" y="413" type="line"/>
      <point x="632" y="413" type="line"/>
      <point x="632" y="577" type="line"/>
      <point x="24" y="577" type="line"/>
      <point x="24" y="413" type="line"/>
      <point x="216" y="413" type="line"/>
    </contour>
    <contour>
      <point x="329" y="-181" type="curve" smooth="yes"/>
      <point x="394" y="-181"/>
      <point x="414" y="-154"/>
      <point x="414" y="-103" type="curve" smooth="yes"/>
      <point x="414" y="-52"/>
      <point x="394" y="-24"/>
      <point x="329" y="-24" type="curve" smooth="yes"/>
      <point x="267" y="-24"/>
      <point x="244" y="-48"/>
      <point x="244" y="-103" type="curve" smooth="yes"/>
      <point x="244" y="-157"/>
      <point x="267" y="-181"/>
    </contour>
  </outline>
</glyph>
<glyph name="Udieresis.sc" format="1">
  <advance width="820"/>
  <outline>
    <contour>
      <point x="410" y="-8" type="curve" smooth="yes"/>
      <point x="682" y="-8"/>
      <point x="765" y="81"/>
      <point x="765" y="253" type="curve" smooth="yes"/>
      <point x="765" y="581" type="line"/>
      <point x="541" y="581" type="line"/>
      <point x="541" y="236" type="line" smooth="yes"/>
      <point x="541" y="204"/>
      <point x="503" y="165"/>
      <point x="410" y="165" type="curve" smooth="yes"/>
      <point x="317" y="165"/>
      <point x="278" y="204"/>
      <point x="278" y="236" type="curve" smooth="yes"/>
      <point x="278" y="581" type="line"/>
      <point x="55" y="581" type="line"/>
      <point x="55" y="253" type="line" smooth="yes"/>
      <point x="55" y="81"/>
      <point x="137" y="-8"/>
    </contour>
    <contour>
      <point x="261" y="612" type="curve" smooth="yes"/>
      <point x="346" y="612"/>
      <point x="375" y="648"/>
      <point x="375" y="721" type="curve" smooth="yes"/>
      <point x="375" y="793"/>
      <point x="346" y="830"/>
      <point x="261" y="830" type="curve" smooth="yes"/>
      <point x="177" y="830"/>
      <point x="145" y="796"/>
      <point x="145" y="721" type="curve" smooth="yes"/>
      <point x="145" y="644"/>
      <point x="177" y="612"/>
    </contour>
    <contour>
      <point x="555" y="612" type="curve" smooth="yes"/>
      <point x="641" y="612"/>
      <point x="669" y="648"/>
      <point x="669" y="721" type="curve" smooth="yes"/>
      <point x="669" y="793"/>
      <point x="641" y="830"/>
      <point x="555" y="830" type="curve" smooth="yes"/>
      <point x="472" y="830"/>
      <point x="441" y="796"/>
      <point x="441" y="721" type="curve" smooth="yes"/>
      <point x="441" y="644"/>
      <point x="472" y="612"/>
    </contour>
  </outline>
</glyph>
<glyph name="Uhungarumlaut.sc" format="1">
  <advance width="820"/>
  <outline>
    <contour>
      <point x="410" y="-8" type="curve" smooth="yes"/>
      <point x="682" y="-8"/>
      <point x="765" y="81"/>
      <point x="765" y="253" type="curve" smooth="yes"/>
      <point x="765" y="581" type="line"/>
      <point x="541" y="581" type="line"/>
      <point x="541" y="236" type="line" smooth="yes"/>
      <point x="541" y="204"/>
      <point x="503" y="165"/>
      <point x="410" y="165" type="curve" smooth="yes"/>
      <point x="317" y="165"/>
      <point x="278" y="204"/>
      <point x="278" y="236" type="curve" smooth="yes"/>
      <point x="278" y="581" type="line"/>
      <point x="55" y="581" type="line"/>
      <point x="55" y="253" type="line" smooth="yes"/>
      <point x="55" y="81"/>
      <point x="137" y="-8"/>
    </contour>
    <contour>
      <point x="360" y="633" type="line"/>
      <point x="483" y="804" type="line"/>
      <point x="261" y="804" type="line"/>
      <point x="208" y="640" type="line"/>
    </contour>
    <contour>
      <point x="597" y="633" type="line"/>
      <point x="718" y="804" type="line"/>
      <point x="497" y="804" type="line"/>
      <point x="443" y="640" type="line"/>
    </contour>
  </outline>
</glyph>
<glyph name="Uogonek.sc" format="1">
  <advance width="820"/>
  <outline>
    <contour>
      <point x="419" y="-175" type="curve" smooth="yes"/>
      <point x="447" y="-175"/>
      <point x="478" y="-173"/>
      <point x="509" y="-165" type="curve"/>
      <point x="509" y="-54" type="line"/>
      <point x="485" y="-59"/>
      <point x="430" y="-64"/>
      <point x="410" y="-64" type="curve" smooth="yes"/>
      <point x="397" y="-64"/>
      <point x="392" y="-63"/>
      <point x="392" y="-55" type="curve" smooth="yes"/>
      <point x="392" y="-50"/>
      <point x="396" y="-40"/>
      <point x="502" y="-4" type="curve"/>
      <point x="701" y="15"/>
      <point x="765" y="102"/>
      <point x="765" y="253" type="curve" smooth="yes"/>
      <point x="765" y="581" type="line"/>
      <point x="541" y="581" type="line"/>
      <point x="541" y="236" type="line" smooth="yes"/>
      <point x="541" y="204"/>
      <point x="503" y="165"/>
      <point x="410" y="165" type="curve" smooth="yes"/>
      <point x="317" y="165"/>
      <point x="278" y="204"/>
      <point x="278" y="236" type="curve" smooth="yes"/>
      <point x="278" y="581" type="line"/>
      <point x="55" y="581" type="line"/>
      <point x="55" y="253" type="line" smooth="yes"/>
      <point x="55" y="102"/>
      <point x="118" y="15"/>
      <point x="318" y="-4" type="curve"/>
      <point x="287" y="-16"/>
      <point x="255" y="-63"/>
      <point x="255" y="-94" type="curve" smooth="yes"/>
      <point x="255" y="-141"/>
      <point x="316" y="-175"/>
    </contour>
  </outline>
</glyph>
<glyph name="Ydieresis.sc" format="1">
  <advance width="717"/>
  <outline>
    <contour>
      <point x="209" y="612" type="curve" smooth="yes"/>
      <point x="294" y="612"/>
      <point x="323" y="648"/>
      <point x="323" y="721" type="curve" smooth="yes"/>
      <point x="323" y="793"/>
      <point x="294" y="830"/>
      <point x="209" y="830" type="curve" smooth="yes"/>
      <point x="126" y="830"/>
      <point x="94" y="796"/>
      <point x="94" y="721" type="curve" smooth="yes"/>
      <point x="94" y="644"/>
      <point x="126" y="612"/>
    </contour>
    <contour>
      <point x="504" y="612" type="curve" smooth="yes"/>
      <point x="589" y="612"/>
      <point x="618" y="648"/>
      <point x="618" y="721" type="curve" smooth="yes"/>
      <point x="618" y="793"/>
      <point x="589" y="830"/>
      <point x="504" y="830" type="curve" smooth="yes"/>
      <point x="420" y="830"/>
      <point x="390" y="796"/>
      <point x="390" y="721" type="curve" smooth="yes"/>
      <point x="390" y="644"/>
      <point x="420" y="612"/>
    </contour>
    <contour>
      <point x="242" y="0" type="line"/>
      <point x="476" y="0" type="line"/>
      <point x="476" y="174" type="line"/>
      <point x="726" y="577" type="line"/>
      <point x="483" y="577" type="line"/>
      <point x="391" y="412" type="line"/>
      <point x="362" y="339" type="line"/>
      <point x="354" y="339" type="line"/>
      <point x="326" y="412" type="line"/>
      <point x="231" y="577" type="line"/>
      <point x="-10" y="577" type="line"/>
      <point x="242" y="174" type="line"/>
    </contour>
  </outline>
</glyph>
<glyph name="Ytilde.sc" format="1">
  <advance width="717"/>
  <outline>
    <contour>
      <point x="242" y="0" type="line"/>
      <point x="476" y="0" type="line"/>
      <point x="476" y="174" type="line"/>
      <point x="726" y="577" type="line"/>
      <point x="483" y="577" type="line"/>
      <point x="391" y="412" type="line"/>
      <point x="362" y="339" type="line"/>
      <point x="354" y="339" type="line"/>
      <point x="326" y="412" type="line"/>
      <point x="231" y="577" type="line"/>
      <point x="-10" y="577" type="line"/>
      <point x="242" y="174" type="line"/>
    </contour>
    <contour>
      <point x="123" y="639" type="line"/>
      <point x="161" y="663"/>
      <point x="187" y="667"/>
      <point x="218" y="667" type="curve" smooth="yes"/>
      <point x="291" y="667"/>
      <point x="362" y="640"/>
      <point x="435" y="640" type="curve" smooth="yes"/>
      <point x="488" y="640"/>
      <point x="557" y="685"/>
      <point x="607" y="777" type="curve"/>
      <point x="586" y="810" type="line"/>
      <point x="544" y="786"/>
      <point x="518" y="783"/>
      <point x="489" y="783" type="curve" smooth="yes"/>
      <point x="417" y="783"/>
      <point x="346" y="809"/>
      <point x="274" y="809" type="curve" smooth="yes"/>
      <point x="217" y="809"/>
      <point x="148" y="763"/>
      <point x="101" y="672" type="curve"/>
    </contour>
  </outline>
</glyph>
<glyph name="Zacute.sc" format="1">
  <advance width="686"/>
  <outline>
    <contour>
      <point x="39" y="0" type="line"/>
      <point x="651" y="0" type="line"/>
      <point x="651" y="165" type="line"/>
      <point x="321" y="165" type="line"/>
      <point x="321" y="173" type="line"/>
      <point x="636" y="435" type="line"/>
      <point x="636" y="577" type="line"/>
      <point x="47" y="577" type="line"/>
      <point x="47" y="413" type="line"/>
      <point x="348" y="413" type="line"/>
      <point x="348" y="404" type="line"/>
      <point x="39" y="148" type="line"/>
    </contour>
    <contour>
      <point x="433" y="631" type="line"/>
      <point x="554" y="802" type="line"/>
      <point x="331" y="802" type="line"/>
      <point x="276" y="640" type="line"/>
    </contour>
  </outline>
</glyph>
<glyph name="Zdotbelow.sc" format="1">
  <advance width="686"/>
  <outline>
    <contour>
      <point x="39" y="0" type="line"/>
      <point x="651" y="0" type="line"/>
      <point x="651" y="165" type="line"/>
      <point x="321" y="165" type="line"/>
      <point x="321" y="173" type="line"/>
      <point x="636" y="435" type="line"/>
      <point x="636" y="577" type="line"/>
      <point x="47" y="577" type="line"/>
      <point x="47" y="413" type="line"/>
      <point x="348" y="413" type="line"/>
      <point x="348" y="404" type="line"/>
      <point x="39" y="148" type="line"/>
    </contour>
    <contour>
      <point x="328" y="-181" type="curve" smooth="yes"/>
      <point x="393" y="-181"/>
      <point x="413" y="-154"/>
      <point x="413" y="-103" type="curve" smooth="yes"/>
      <point x="413" y="-52"/>
      <point x="393" y="-24"/>
      <point x="328" y="-24" type="curve" smooth="yes"/>
      <point x="266" y="-24"/>
      <point x="243" y="-48"/>
      <point x="243" y="-103" type="curve" smooth="yes"/>
      <point x="243" y="-157"/>
      <point x="266" y="-181"/>
    </contour>
  </outline>
</glyph>
<glyph name="ampersand.sc" format="1">
  <advance width="815"/>
  <outline>
    <contour>
      <point x="360" y="-6" type="curve" smooth="yes"/>
      <point x="472" y="-6"/>
      <point x="564" y="19"/>
      <point x="628" y="65" type="curve"/>
      <point x="728" y="15" type="line"/>
      <point x="739" y="15" type="line"/>
      <point x="817" y="158" type="line"/>
      <point x="817" y="173" type="line"/>
      <point x="727" y="213" type="line"/>
      <point x="731" y="230"/>
      <point x="733" y="249"/>
      <point x="733" y="269" type="curve" smooth="yes"/>
      <point x="733" y="358" type="line"/>
      <point x="532" y="358" type="line"/>
      <point x="532" y="332" type="line"/>
      <point x="532" y="299" type="line"/>
      <point x="502" y="311" type="line" smooth="yes"/>
      <point x="386" y="358"/>
      <point x="325" y="396"/>
      <point x="325" y="416" type="curve" smooth="yes"/>
      <point x="325" y="439"/>
      <point x="354" y="448"/>
      <point x="418" y="448" type="curve" smooth="yes"/>
      <point x="462" y="448"/>
      <point x="528" y="439"/>
      <point x="580" y="427" type="curve"/>
      <point x="591" y="427" type="line"/>
      <point x="611" y="563" type="line"/>
      <point x="607" y="568" type="line"/>
      <point x="532" y="579"/>
      <point x="457" y="586"/>
      <point x="392" y="586" type="curve" smooth="yes"/>
      <point x="212" y="586"/>
      <point x="95" y="522"/>
      <point x="95" y="429" type="curve" smooth="yes"/>
      <point x="95" y="393"/>
      <point x="119" y="356"/>
      <point x="179" y="311" type="curve"/>
      <point x="90" y="293"/>
      <point x="34" y="235"/>
      <point x="34" y="161" type="curve" smooth="yes"/>
      <point x="34" y="60"/>
      <point x="161" y="-6"/>
    </contour>
    <contour>
      <point x="376" y="129" type="curve" smooth="yes"/>
      <point x="310" y="129"/>
      <point x="265" y="148"/>
      <point x="265" y="173" type="curve" smooth="yes"/>
      <point x="265" y="200"/>
      <point x="286" y="214"/>
      <point x="319" y="225" type="curve"/>
      <point x="348" y="209"/>
      <point x="379" y="193"/>
      <point x="415" y="174" type="curve" smooth="yes"/>
      <point x="469" y="146" type="line"/>
      <point x="445" y="135"/>
      <point x="414" y="129"/>
    </contour>
  </outline>
</glyph>
<glyph name="braceright.sc" format="1">
  <advance width="348"/>
  <outline>
    <contour>
      <point x="312" y="354" type="line"/>
      <point x="270" y="354"/>
      <point x="264" y="374"/>
      <point x="264" y="411" type="curve" smooth="yes"/>
      <point x="264" y="578" type="line" smooth="yes"/>
      <point x="264" y="650"/>
      <point x="231" y="677"/>
      <point x="159" y="677" type="curve" smooth="yes"/>
      <point x="136" y="677"/>
      <point x="63" y="675"/>
      <point x="53" y="673" type="curve"/>
      <point x="53" y="542" type="line"/>
      <point x="56" y="542" type="line" smooth="yes"/>
      <point x="78" y="542"/>
      <point x="92" y="531"/>
      <point x="92" y="510" type="curve" smooth="yes"/>
      <point x="92" y="366" type="line" smooth="yes"/>
      <point x="92" y="317"/>
      <point x="123" y="283"/>
      <point x="168" y="276" type="curve"/>
      <point x="123" y="271"/>
      <point x="92" y="237"/>
      <point x="92" y="189" type="curve" smooth="yes"/>
      <point x="92" y="43" type="line" smooth="yes"/>
      <point x="92" y="20"/>
      <point x="79" y="10"/>
      <point x="56" y="10" type="curve" smooth="yes"/>
      <point x="53" y="10" type="line"/>
      <point x="53" y="-121" type="line"/>
      <point x="63" y="-122"/>
      <point x="136" y="-125"/>
      <point x="159" y="-125" type="curve" smooth="yes"/>
      <point x="231" y="-125"/>
      <point x="264" y="-98"/>
      <point x="264" y="-26" type="curve" smooth="yes"/>
      <point x="264" y="143" type="line" smooth="yes"/>
      <point x="264" y="180"/>
      <point x="270" y="199"/>
      <point x="312" y="199" type="curve"/>
    </contour>
  </outline>
</glyph>
<glyph name="bracketleft.sc" format="1">
  <advance width="408"/>
  <outline>
    <contour>
      <point x="82" y="-125" type="line"/>
      <point x="370" y="-125" type="line"/>
      <point x="370" y="10" type="line"/>
      <point x="248" y="10" type="line"/>
      <point x="248" y="542" type="line"/>
      <point x="370" y="542" type="line"/>
      <point x="370" y="677" type="line"/>
      <point x="82" y="677" type="line"/>
    </contour>
  </outline>
</glyph>
<glyph name="bracketright.sc" format="1">
  <advance width="408"/>
  <outline>
    <contour>
      <point x="326" y="-125" type="line"/>
      <point x="326" y="677" type="line"/>
      <point x="38" y="677" type="line"/>
      <point x="38" y="542" type="line"/>
      <point x="161" y="542" type="line"/>
      <point x="161" y="10" type="line"/>
      <point x="38" y="10" type="line"/>
      <point x="38" y="-125" type="line"/>
    </contour>
  </outline>
</glyph>
<glyph name="caron.cap" format="1">
  <advance width="530"/>
  <outline>
    <contour>
      <point x="265" y="885" type="move" name="_topUC"/>
    </contour>
    <contour>
      <point x="30" y="878" type="line"/>
      <point x="262" y="797" type="line"/>
      <point x="500" y="878" type="line"/>
      <point x="500" y="1027" type="line"/>
      <point x="265" y="945" type="line"/>
      <point x="30" y="1027" type="line"/>
    </contour>
  </outline>
</glyph>
<glyph name="cent.tab" format="1">
  <advance width="670"/>
  <outline>
    <contour>
      <point x="322" y="-120" type="line"/>
      <point x="463" y="-120" type="line"/>
      <point x="463" y="-6" type="line"/>
      <point x="512" y="-3"/>
      <point x="558" y="2"/>
      <point x="594" y="10" type="curve"/>
      <point x="594" y="187" type="line"/>
      <point x="530" y="179"/>
      <point x="475" y="176"/>
      <point x="387" y="176" type="curve" smooth="yes"/>
      <point x="308" y="176"/>
      <point x="280" y="200"/>
      <point x="280" y="272" type="curve" smooth="yes"/>
      <point x="280" y="343"/>
      <point x="307" y="364"/>
      <point x="389" y="364" type="curve" smooth="yes"/>
      <point x="451" y="364"/>
      <point x="519" y="360"/>
      <point x="594" y="353" type="curve"/>
      <point x="594" y="530" type="line"/>
      <point x="558" y="537"/>
      <point x="512" y="543"/>
      <point x="463" y="546" type="curve"/>
      <point x="463" y="660" type="line"/>
      <point x="322" y="660" type="line"/>
      <point x="322" y="547" type="line"/>
      <point x="139" y="535"/>
      <point x="49" y="442"/>
      <point x="49" y="270" type="curve" smooth="yes"/>
      <point x="49" y="97"/>
      <point x="139" y="5"/>
      <point x="322" y="-7" type="curve"/>
    </contour>
  </outline>
</glyph>
<glyph name="eight.denominator" format="1">
  <advance width="610"/>
  <outline>
    <contour>
      <point x="311" y="-6" type="curve" smooth="yes"/>
      <point x="498" y="-6"/>
      <point x="582" y="48"/>
      <point x="582" y="167" type="curve" smooth="yes"/>
      <point x="582" y="222"/>
      <point x="560" y="264"/>
      <point x="517" y="293" type="curve"/>
      <point x="553" y="317"/>
      <point x="567" y="346"/>
      <point x="567" y="393" type="curve" smooth="yes"/>
      <point x="567" y="492"/>
      <point x="470" y="553"/>
      <point x="311" y="553" type="curve" smooth="yes"/>
      <point x="141" y="553"/>
      <point x="40" y="493"/>
      <point x="40" y="393" type="curve" smooth="yes"/>
      <point x="40" y="344"/>
      <point x="62" y="302"/>
      <point x="102" y="276" type="curve"/>
      <point x="51" y="247"/>
      <point x="27" y="206"/>
      <point x="27" y="150" type="curve" smooth="yes"/>
      <point x="27" y="45"/>
      <point x="120" y="-6"/>
    </contour>
    <contour>
      <point x="311" y="123" type="curve" smooth="yes"/>
      <point x="257" y="123"/>
      <point x="222" y="143"/>
      <point x="222" y="174" type="curve" smooth="yes"/>
      <point x="222" y="189"/>
      <point x="234" y="209"/>
      <point x="256" y="229" type="curve"/>
      <point x="270" y="226" type="line" smooth="yes"/>
      <point x="355" y="207"/>
      <point x="387" y="192"/>
      <point x="387" y="172" type="curve" smooth="yes"/>
      <point x="387" y="137"/>
      <point x="366" y="123"/>
    </contour>
    <contour>
      <point x="342" y="331" type="curve"/>
      <point x="323" y="334" type="line" smooth="yes"/>
      <point x="262" y="344"/>
      <point x="235" y="360"/>
      <point x="235" y="388" type="curve" smooth="yes"/>
      <point x="235" y="410"/>
      <point x="264" y="424"/>
      <point x="311" y="424" type="curve" smooth="yes"/>
      <point x="348" y="424"/>
      <point x="372" y="408"/>
      <point x="372" y="384" type="curve" smooth="yes"/>
      <point x="372" y="367"/>
      <point x="358" y="342"/>
    </contour>
  </outline>
</glyph>
<glyph name="equal.tab" format="1">
  <advance width="670"/>
  <outline>
    <contour>
      <point x="85" y="167" type="line"/>
      <point x="584" y="167" type="line"/>
      <point x="584" y="305" type="line"/>
      <point x="85" y="305" type="line"/>
    </contour>
    <contour>
      <point x="85" y="390" type="line"/>
      <point x="584" y="390" type="line"/>
      <point x="584" y="528" type="line"/>
      <point x="85" y="528" type="line"/>
    </contour>
  </outline>
</glyph>
<glyph name="five.numerator" format="1">
  <advance width="533"/>
  <outline>
    <contour>
      <point x="216" y="191" type="curve" smooth="yes"/>
      <point x="353" y="191"/>
      <point x="510" y="223"/>
      <point x="510" y="375" type="curve" smooth="yes"/>
      <point x="510" y="506"/>
      <point x="431" y="546"/>
      <point x="203" y="546" type="curve"/>
      <point x="206" y="593" type="line"/>
      <point x="473" y="593" type="line"/>
      <point x="473" y="746" type="line"/>
      <point x="68" y="746" type="line"/>
      <point x="40" y="441" type="line"/>
      <point x="67" y="419" type="line"/>
      <point x="175" y="419" type="line" smooth="yes"/>
      <point x="276" y="419"/>
      <point x="309" y="412"/>
      <point x="309" y="378" type="curve" smooth="yes"/>
      <point x="309" y="350"/>
      <point x="270" y="345"/>
      <point x="188" y="345" type="curve" smooth="yes"/>
      <point x="151" y="345"/>
      <point x="116" y="347"/>
      <point x="74" y="353" type="curve"/>
      <point x="34" y="353" type="line"/>
      <point x="34" y="203" type="line"/>
      <point x="96" y="197"/>
      <point x="158" y="191"/>
    </contour>
  </outline>
</glyph>
<glyph name="five.tosf" format="1">
  <advance width="670"/>
  <outline>
    <contour>
      <point x="273" y="-169" type="curve" smooth="yes"/>
      <point x="444" y="-169"/>
      <point x="638" y="-127"/>
      <point x="638" y="72" type="curve" smooth="yes"/>
      <point x="638" y="258"/>
      <point x="505" y="306"/>
      <point x="253" y="309" type="curve"/>
      <point x="258" y="408" type="line"/>
      <point x="592" y="408" type="line"/>
      <point x="592" y="584" type="line"/>
      <point x="88" y="584" type="line"/>
      <point x="55" y="169" type="line"/>
      <point x="80" y="145" type="line"/>
      <point x="159" y="145" type="line" smooth="yes"/>
      <point x="336" y="145"/>
      <point x="391" y="133"/>
      <point x="391" y="84" type="curve" smooth="yes"/>
      <point x="391" y="15"/>
      <point x="342" y="5"/>
      <point x="238" y="5" type="curve" smooth="yes"/>
      <point x="194" y="5"/>
      <point x="150" y="8"/>
      <point x="99" y="17" type="curve"/>
      <point x="48" y="17" type="line"/>
      <point x="48" y="-152" type="line"/>
      <point x="123" y="-161"/>
      <point x="199" y="-169"/>
    </contour>
  </outline>
</glyph>
<glyph name="four.numerator" format="1">
  <advance width="598"/>
  <outline>
    <contour>
      <point x="295" y="200" type="line"/>
      <point x="485" y="200" type="line"/>
      <point x="485" y="285" type="line"/>
      <point x="582" y="285" type="line"/>
      <point x="582" y="430" type="line"/>
      <point x="485" y="430" type="line"/>
      <point x="485" y="545" type="line"/>
      <point x="350" y="545" type="line"/>
      <point x="305" y="430" type="line"/>
      <point x="206" y="430" type="line"/>
      <point x="420" y="703" type="line"/>
      <point x="402" y="740" type="line"/>
      <point x="235" y="752" type="line"/>
      <point x="217" y="746" type="line"/>
      <point x="8" y="406" type="line"/>
      <point x="27" y="285" type="line"/>
      <point x="295" y="285" type="line"/>
    </contour>
  </outline>
</glyph>
<glyph name="four.tosf" format="1">
  <advance width="670"/>
  <outline>
    <contour>
      <point x="7" y="0" type="line"/>
      <point x="334" y="0" type="line"/>
      <point x="334" y="-162" type="line"/>
      <point x="561" y="-162" type="line"/>
      <point x="561" y="0" type="line"/>
      <point x="677" y="0" type="line"/>
      <point x="677" y="176" type="line"/>
      <point x="561" y="176" type="line"/>
      <point x="561" y="328" type="line"/>
      <point x="396" y="328" type="line"/>
      <point x="364" y="213" type="line"/>
      <point x="353" y="176" type="line"/>
      <point x="217" y="176" type="line"/>
      <point x="217" y="180" type="line"/>
      <point x="472" y="551" type="line"/>
      <point x="462" y="575" type="line"/>
      <point x="227" y="595" type="line"/>
      <point x="223" y="595" type="line"/>
      <point x="-13" y="156" type="line"/>
      <point x="-13" y="142" type="line"/>
    </contour>
  </outline>
</glyph>
<glyph name="less.tab" format="1">
  <advance width="670"/>
  <outline>
    <contour>
      <point x="588" y="90" type="line"/>
      <point x="588" y="237" type="line"/>
      <point x="258" y="363" type="line"/>
      <point x="588" y="489" type="line"/>
      <point x="588" y="636" type="line"/>
      <point x="51" y="429" type="line"/>
      <point x="51" y="297" type="line"/>
    </contour>
  </outline>
</glyph>
<glyph name="macron.cap" format="1">
  <advance width="552"/>
  <outline>
    <contour>
      <point x="275" y="885" type="move" name="_topUC"/>
    </contour>
    <contour>
      <point x="43" y="843" type="line"/>
      <point x="509" y="843" type="line"/>
      <point x="509" y="991" type="line"/>
      <point x="43" y="991" type="line"/>
    </contour>
  </outline>
</glyph>
<glyph name="nine.numerator" format="1">
  <advance width="611"/>
  <outline>
    <contour>
      <point x="214" y="194" type="curve" smooth="yes"/>
      <point x="459" y="194"/>
      <point x="584" y="296"/>
      <point x="584" y="497" type="curve" smooth="yes"/>
      <point x="584" y="662"/>
      <point x="484" y="753"/>
      <point x="301" y="753" type="curve"/>
      <point x="128" y="753"/>
      <point x="23" y="678"/>
      <point x="23" y="555" type="curve" smooth="yes"/>
      <point x="23" y="453"/>
      <point x="112" y="383"/>
      <point x="243" y="383" type="curve" smooth="yes"/>
      <point x="300" y="383"/>
      <point x="354" y="398"/>
      <point x="390" y="424" type="curve"/>
      <point x="365" y="363"/>
      <point x="315" y="340"/>
      <point x="207" y="340" type="curve" smooth="yes"/>
      <point x="182" y="340"/>
      <point x="159" y="342"/>
      <point x="89" y="350" type="curve"/>
      <point x="59" y="209" type="line"/>
      <point x="119" y="199"/>
      <point x="170" y="194"/>
    </contour>
    <contour>
      <point x="301" y="511" type="curve" smooth="yes"/>
      <point x="244" y="511"/>
      <point x="220" y="525"/>
      <point x="220" y="559" type="curve" smooth="yes"/>
      <point x="220" y="594"/>
      <point x="245" y="610"/>
      <point x="301" y="610" type="curve"/>
      <point x="356" y="610"/>
      <point x="383" y="586"/>
      <point x="390" y="528" type="curve"/>
      <point x="368" y="518"/>
      <point x="333" y="511"/>
    </contour>
  </outline>
</glyph>
<glyph name="nine.tf" format="1">
  <advance width="670"/>
  <outline>
    <contour>
      <point x="326" y="750" type="curve" smooth="yes"/>
      <point x="126" y="750"/>
      <point x="5" y="650"/>
      <point x="5" y="487" type="curve" smooth="yes"/>
      <point x="5" y="350"/>
      <point x="108" y="262"/>
      <point x="266" y="262" type="curve" smooth="yes"/>
      <point x="327" y="262"/>
      <point x="379" y="276"/>
      <point x="415" y="303" type="curve"/>
      <point x="396" y="194"/>
      <point x="340" y="154"/>
      <point x="216" y="154" type="curve" smooth="yes"/>
      <point x="180" y="154"/>
      <point x="138" y="159"/>
      <point x="79" y="169" type="curve"/>
      <point x="50" y="10" type="line"/>
      <point x="115" y="-3"/>
      <point x="173" y="-10"/>
      <point x="225" y="-10" type="curve" smooth="yes"/>
      <point x="509" y="-10"/>
      <point x="652" y="129"/>
      <point x="652" y="404" type="curve" smooth="yes"/>
      <point x="652" y="631"/>
      <point x="533" y="750"/>
    </contour>
    <contour>
      <point x="326" y="400" type="curve" smooth="yes"/>
      <point x="265" y="400"/>
      <point x="241" y="427"/>
      <point x="241" y="493" type="curve" smooth="yes"/>
      <point x="241" y="561"/>
      <point x="266" y="591"/>
      <point x="326" y="591" type="curve" smooth="yes"/>
      <point x="389" y="591"/>
      <point x="417" y="545"/>
      <point x="421" y="434" type="curve"/>
      <point x="401" y="414"/>
      <point x="363" y="400"/>
    </contour>
  </outline>
</glyph>
<glyph name="parenright.sc" format="1">
  <advance width="378"/>
  <outline>
    <contour>
      <point x="203" y="-125" type="line"/>
      <point x="295" y="-7"/>
      <point x="341" y="135"/>
      <point x="341" y="276" type="curve" smooth="yes"/>
      <point x="341" y="417"/>
      <point x="295" y="559"/>
      <point x="203" y="677" type="curve"/>
      <point x="14" y="677" type="line"/>
      <point x="14" y="674" type="line"/>
      <point x="106" y="556"/>
      <point x="170" y="415"/>
      <point x="170" y="276" type="curve" smooth="yes"/>
      <point x="170" y="138"/>
      <point x="106" y="-3"/>
      <point x="14" y="-122" type="curve"/>
      <point x="14" y="-125" type="line"/>
    </contour>
  </outline>
</glyph>
<glyph name="percent.tab" format="1">
  <advance width="670"/>
  <note>
    450
  </note>
  <outline>
    <contour>
      <point x="59" y="297" type="curve" smooth="yes"/>
      <point x="173" y="297"/>
      <point x="240" y="368"/>
      <point x="240" y="514" type="curve" smooth="yes"/>
      <point x="240" y="660"/>
      <point x="173" y="732"/>
      <point x="59" y="732" type="curve" smooth="yes"/>
      <point x="-53" y="732"/>
      <point x="-122" y="660"/>
      <point x="-122" y="514" type="curve" smooth="yes"/>
      <point x="-122" y="368"/>
      <point x="-53" y="297"/>
    </contour>
    <contour>
      <point x="59" y="413" type="curve" smooth="yes"/>
      <point x="19" y="413"/>
      <point x="6" y="431"/>
      <point x="6" y="514" type="curve" smooth="yes"/>
      <point x="6" y="597"/>
      <point x="19" y="616"/>
      <point x="59" y="616" type="curve" smooth="yes"/>
      <point x="97" y="616"/>
      <point x="112" y="597"/>
      <point x="112" y="514" type="curve" smooth="yes"/>
      <point x="112" y="431"/>
      <point x="97" y="413"/>
    </contour>
    <contour>
      <point x="611" y="9" type="curve" smooth="yes"/>
      <point x="724" y="9"/>
      <point x="792" y="80"/>
      <point x="792" y="226" type="curve" smooth="yes"/>
      <point x="792" y="372"/>
      <point x="724" y="444"/>
      <point x="611" y="444" type="curve" smooth="yes"/>
      <point x="498" y="444"/>
      <point x="430" y="372"/>
      <point x="430" y="226" type="curve" smooth="yes"/>
      <point x="430" y="80"/>
      <point x="498" y="9"/>
    </contour>
    <contour>
      <point x="611" y="125" type="curve" smooth="yes"/>
      <point x="571" y="125"/>
      <point x="558" y="143"/>
      <point x="558" y="226" type="curve" smooth="yes"/>
      <point x="558" y="309"/>
      <point x="571" y="328"/>
      <point x="611" y="328" type="curve" smooth="yes"/>
      <point x="649" y="328"/>
      <point x="664" y="309"/>
      <point x="664" y="226" type="curve" smooth="yes"/>
      <point x="664" y="143"/>
      <point x="649" y="125"/>
    </contour>
    <contour>
      <point x="114" y="0" type="line"/>
      <point x="281" y="0" type="line"/>
      <point x="553" y="740" type="line"/>
      <point x="386" y="740" type="line"/>
    </contour>
  </outline>
</glyph>
<glyph name="period.tab" format="1">
  <advance width="335"/>
  <outline>
    <contour>
      <point x="166" y="-10" type="curve" smooth="yes"/>
      <point x="242" y="-10"/>
      <point x="293" y="26"/>
      <point x="293" y="105" type="curve" smooth="yes"/>
      <point x="293" y="185"/>
      <point x="242" y="220"/>
      <point x="166" y="220" type="curve" smooth="yes"/>
      <point x="92" y="220"/>
      <point x="41" y="185"/>
      <point x="41" y="105" type="curve" smooth="yes"/>
      <point x="41" y="26"/>
      <point x="92" y="-10"/>
    </contour>
  </outline>
</glyph>
<glyph name="plusminus.tab" format="1">
  <advance width="670"/>
  <outline>
    <contour>
      <point x="77" y="357" type="line"/>
      <point x="263" y="357" type="line"/>
      <point x="263" y="212" type="line"/>
      <point x="405" y="212" type="line"/>
      <point x="405" y="357" type="line"/>
      <point x="592" y="357" type="line"/>
      <point x="592" y="491" type="line"/>
      <point x="405" y="491" type="line"/>
      <point x="405" y="646" type="line"/>
      <point x="263" y="646" type="line"/>
      <point x="263" y="491" type="line"/>
      <point x="77" y="491" type="line"/>
    </contour>
    <contour>
      <point x="78" y="34" type="line"/>
      <point x="593" y="34" type="line"/>
      <point x="593" y="168" type="line"/>
      <point x="78" y="168" type="line"/>
    </contour>
  </outline>
</glyph>
<glyph name="quotesingle.tab" format="1">
  <advance width="335"/>
  <outline>
    <contour>
      <point x="87" y="808" type="line"/>
      <point x="87" y="480" type="line"/>
      <point x="217" y="480" type="line"/>
      <point x="274" y="804" type="line"/>
      <point x="274" y="808" type="line"/>
    </contour>
  </outline>
</glyph>
<glyph name="semicolon.tab" format="1">
  <advance width="335"/>
  <outline>
    <contour>
      <point x="192" y="-155" type="line"/>
      <point x="290" y="217" type="line"/>
      <point x="64" y="217" type="line"/>
      <point x="24" y="-145" type="line"/>
    </contour>
    <contour>
      <point x="172" y="320" type="curve" smooth="yes"/>
      <point x="246" y="320"/>
      <point x="296" y="356"/>
      <point x="296" y="435" type="curve" smooth="yes"/>
      <point x="296" y="515"/>
      <point x="246" y="550"/>
      <point x="172" y="550" type="curve" smooth="yes"/>
      <point x="100" y="550"/>
      <point x="50" y="515"/>
      <point x="50" y="435" type="curve" smooth="yes"/>
      <point x="50" y="356"/>
      <point x="100" y="320"/>
    </contour>
  </outline>
</glyph>
<glyph name="seven.tosf" format="1">
  <advance width="670"/>
  <outline>
    <contour>
      <point x="311" y="-184" type="line"/>
      <point x="106" y="-156" type="line"/>
      <point x="106" y="-135" type="line"/>
      <point x="386" y="387" type="line"/>
      <point x="35" y="387" type="line"/>
      <point x="25" y="566" type="line"/>
      <point x="45" y="584" type="line"/>
      <point x="623" y="584" type="line"/>
      <point x="656" y="461" type="line"/>
      <point x="656" y="452" type="line"/>
      <point x="365" y="-156" type="line"/>
    </contour>
  </outline>
</glyph>
<glyph name="slash.tab" format="1">
  <advance width="670"/>
  <outline>
    <contour>
      <point x="53" y="-120" type="line"/>
      <point x="266" y="-120" type="line"/>
      <point x="618" y="740" type="line"/>
      <point x="404" y="740" type="line"/>
    </contour>
  </outline>
</glyph>
<glyph name="three.numerator" format="1">
  <advance width="535"/>
  <outline>
    <contour>
      <point x="252" y="191" type="curve" smooth="yes"/>
      <point x="417" y="191"/>
      <point x="505" y="248"/>
      <point x="505" y="354" type="curve" smooth="yes"/>
      <point x="505" y="413"/>
      <point x="478" y="458"/>
      <point x="429" y="483" type="curve"/>
      <point x="474" y="506"/>
      <point x="499" y="545"/>
      <point x="499" y="593" type="curve" smooth="yes"/>
      <point x="499" y="700"/>
      <point x="409" y="753"/>
      <point x="229" y="753" type="curve" smooth="yes"/>
      <point x="180" y="753"/>
      <point x="78" y="746"/>
      <point x="38" y="739" type="curve"/>
      <point x="38" y="581" type="line"/>
      <point x="40" y="581" type="line"/>
      <point x="95" y="588"/>
      <point x="161" y="593"/>
      <point x="196" y="593" type="curve" smooth="yes"/>
      <point x="283" y="593"/>
      <point x="302" y="588"/>
      <point x="302" y="565" type="curve" smooth="yes"/>
      <point x="302" y="540"/>
      <point x="276" y="533"/>
      <point x="179" y="533" type="curve" smooth="yes"/>
      <point x="115" y="533" type="line"/>
      <point x="115" y="416" type="line"/>
      <point x="179" y="416" type="line" smooth="yes"/>
      <point x="291" y="416"/>
      <point x="317" y="410"/>
      <point x="317" y="383" type="curve" smooth="yes"/>
      <point x="317" y="358"/>
      <point x="301" y="354"/>
      <point x="198" y="354" type="curve" smooth="yes"/>
      <point x="155" y="354"/>
      <point x="72" y="360"/>
      <point x="40" y="366" type="curve"/>
      <point x="38" y="366" type="line"/>
      <point x="38" y="204" type="line"/>
      <point x="68" y="197"/>
      <point x="167" y="191"/>
    </contour>
  </outline>
</glyph>
<glyph name="three.tf" format="1">
  <advance width="670"/>
  <outline>
    <contour>
      <point x="283" y="-13" type="curve" smooth="yes"/>
      <point x="517" y="-13"/>
      <point x="639" y="62"/>
      <point x="639" y="207" type="curve" smooth="yes"/>
      <point x="639" y="289"/>
      <point x="579" y="355"/>
      <point x="484" y="376" type="curve"/>
      <point x="484" y="386" type="line"/>
      <point x="570" y="413"/>
      <point x="619" y="470"/>
      <point x="619" y="543" type="curve" smooth="yes"/>
      <point x="619" y="681"/>
      <point x="505" y="750"/>
      <point x="279" y="750" type="curve" smooth="yes"/>
      <point x="228" y="750"/>
      <point x="100" y="739"/>
      <point x="40" y="730" type="curve"/>
      <point x="40" y="555" type="line"/>
      <point x="44" y="555" type="line"/>
      <point x="106" y="564"/>
      <point x="192" y="572"/>
      <point x="238" y="572" type="curve" smooth="yes"/>
      <point x="347" y="572"/>
      <point x="375" y="561"/>
      <point x="375" y="516" type="curve" smooth="yes"/>
      <point x="375" y="465"/>
      <point x="347" y="454"/>
      <point x="217" y="454" type="curve" smooth="yes"/>
      <point x="137" y="454" type="line"/>
      <point x="137" y="296" type="line"/>
      <point x="218" y="296" type="line" smooth="yes"/>
      <point x="364" y="296"/>
      <point x="394" y="284"/>
      <point x="394" y="225" type="curve" smooth="yes"/>
      <point x="394" y="169"/>
      <point x="370" y="159"/>
      <point x="241" y="159" type="curve" smooth="yes"/>
      <point x="188" y="159"/>
      <point x="84" y="169"/>
      <point x="44" y="177" type="curve"/>
      <point x="40" y="177" type="line"/>
      <point x="40" y="4" type="line"/>
      <point x="74" y="-5"/>
      <point x="192" y="-13"/>
    </contour>
  </outline>
</glyph>
<glyph name="two.denominator" format="1">
  <advance width="562"/>
  <outline>
    <contour>
      <point x="26" y="0" type="line"/>
      <point x="526" y="0" type="line"/>
      <point x="526" y="154" type="line"/>
      <point x="284" y="154" type="line"/>
      <point x="284" y="157" type="line" smooth="yes"/>
      <point x="284" y="163"/>
      <point x="299" y="170"/>
      <point x="350" y="189" type="curve" smooth="yes"/>
      <point x="465" y="228"/>
      <point x="526" y="292"/>
      <point x="526" y="376" type="curve" smooth="yes"/>
      <point x="526" y="497"/>
      <point x="444" y="553"/>
      <point x="269" y="553" type="curve" smooth="yes"/>
      <point x="209" y="553"/>
      <point x="143" y="547"/>
      <point x="43" y="531" type="curve"/>
      <point x="58" y="376" type="line"/>
      <point x="140" y="388"/>
      <point x="191" y="393"/>
      <point x="233" y="393" type="curve" smooth="yes"/>
      <point x="301" y="393"/>
      <point x="336" y="382"/>
      <point x="336" y="360" type="curve" smooth="yes"/>
      <point x="336" y="344"/>
      <point x="325" y="338"/>
      <point x="231" y="307" type="curve" smooth="yes"/>
      <point x="90" y="260"/>
      <point x="26" y="190"/>
      <point x="26" y="85" type="curve" smooth="yes"/>
    </contour>
  </outline>
</glyph>
<glyph name="two.numerator" format="1">
  <advance width="562"/>
  <outline>
    <contour>
      <point x="26" y="200" type="line"/>
      <point x="526" y="200" type="line"/>
      <point x="526" y="354" type="line"/>
      <point x="284" y="354" type="line"/>
      <point x="284" y="357" type="line" smooth="yes"/>
      <point x="284" y="363"/>
      <point x="299" y="370"/>
      <point x="350" y="389" type="curve"/>
      <point x="465" y="428"/>
      <point x="526" y="492"/>
      <point x="526" y="576" type="curve" smooth="yes"/>
      <point x="526" y="697"/>
      <point x="444" y="753"/>
      <point x="269" y="753" type="curve" smooth="yes"/>
      <point x="209" y="753"/>
      <point x="143" y="747"/>
      <point x="43" y="731" type="curve"/>
      <point x="58" y="576" type="line"/>
      <point x="140" y="588"/>
      <point x="191" y="593"/>
      <point x="233" y="593" type="curve" smooth="yes"/>
      <point x="301" y="593"/>
      <point x="336" y="582"/>
      <point x="336" y="560" type="curve" smooth="yes"/>
      <point x="336" y="544"/>
      <point x="325" y="538"/>
      <point x="231" y="507" type="curve" smooth="yes"/>
      <point x="90" y="460"/>
      <point x="26" y="390"/>
      <point x="26" y="285" type="curve" smooth="yes"/>
    </contour>
  </outline>
</glyph>
<glyph name="underscore.tab" format="1">
  <advance width="670"/>
  <outline>
    <contour>
      <point x="30" y="-220" type="line"/>
      <point x="639" y="-220" type="line"/>
      <point x="639" y="-56" type="line"/>
      <point x="30" y="-56" type="line"/>
    </contour>
  </outline>
</glyph>
<glyph name="uni015E.sc" format="1">
  <advance width="675"/>
  <outline>
    <contour>
      <point x="318" y="-192" type="curve" smooth="yes"/>
      <point x="398" y="-192"/>
      <point x="447" y="-158"/>
      <point x="447" y="-104" type="curve" smooth="yes"/>
      <point x="447" y="-69"/>
      <point x="437" y="-44"/>
      <point x="410" y="-7" type="curve"/>
      <point x="572" y="6"/>
      <point x="649" y="69"/>
      <point x="649" y="190" type="curve" smooth="yes"/>
      <point x="649" y="292"/>
      <point x="563" y="349"/>
      <point x="387" y="362" type="curve" smooth="yes"/>
      <point x="315" y="367"/>
      <point x="280" y="377"/>
      <point x="280" y="394" type="curve" smooth="yes"/>
      <point x="280" y="411"/>
      <point x="304" y="416"/>
      <point x="384" y="416" type="curve" smooth="yes"/>
      <point x="453" y="416"/>
      <point x="541" y="406"/>
      <point x="610" y="390" type="curve"/>
      <point x="610" y="559" type="line"/>
      <point x="481" y="579"/>
      <point x="425" y="585"/>
      <point x="357" y="585" type="curve" smooth="yes"/>
      <point x="160" y="585"/>
      <point x="44" y="514"/>
      <point x="44" y="393" type="curve" smooth="yes"/>
      <point x="44" y="279"/>
      <point x="125" y="224"/>
      <point x="316" y="208" type="curve" smooth="yes"/>
      <point x="389" y="202"/>
      <point x="413" y="195"/>
      <point x="413" y="179" type="curve" smooth="yes"/>
      <point x="413" y="166"/>
      <point x="379" y="159"/>
      <point x="316" y="159" type="curve" smooth="yes"/>
      <point x="235" y="159"/>
      <point x="151" y="167"/>
      <point x="38" y="187" type="curve"/>
      <point x="38" y="12" type="line"/>
      <point x="102" y="2"/>
      <point x="194" y="-6"/>
      <point x="285" y="-9" type="curve"/>
      <point x="305" y="-27"/>
      <point x="316" y="-46"/>
      <point x="316" y="-61" type="curve" smooth="yes"/>
      <point x="316" y="-74"/>
      <point x="307" y="-80"/>
      <point x="289" y="-80" type="curve" smooth="yes"/>
      <point x="270" y="-80"/>
      <point x="244" y="-77"/>
      <point x="205" y="-69" type="curve"/>
      <point x="205" y="-182" type="line"/>
      <point x="247" y="-188"/>
      <point x="287" y="-192"/>
    </contour>
  </outline>
</glyph>
<glyph name="uni030F.cap" format="1">
  <advance width="590"/>
  <outline>
    <contour>
      <point x="337" y="885" type="move" name="_topUC"/>
    </contour>
    <contour>
      <point x="297" y="817" type="line"/>
      <point x="236" y="1008" type="line"/>
      <point x="5" y="1008" type="line"/>
      <point x="138" y="807" type="line"/>
    </contour>
    <contour>
      <point x="550" y="817" type="line"/>
      <point x="488" y="1008" type="line"/>
      <point x="257" y="1008" type="line"/>
      <point x="390" y="807" type="line"/>
    </contour>
  </outline>
</glyph>
<glyph name="yen.tab" format="1">
  <advance width="670"/>
  <outline>
    <contour>
      <point x="31" y="246" type="line"/>
      <point x="224" y="246" type="line"/>
      <point x="224" y="182" type="line"/>
      <point x="31" y="182" type="line"/>
      <point x="31" y="51" type="line"/>
      <point x="224" y="51" type="line"/>
      <point x="224" y="0" type="line"/>
      <point x="453" y="0" type="line"/>
      <point x="453" y="51" type="line"/>
      <point x="633" y="51" type="line"/>
      <point x="633" y="182" type="line"/>
      <point x="453" y="182" type="line"/>
      <point x="453" y="246" type="line"/>
      <point x="633" y="246" type="line"/>
      <point x="633" y="377" type="line"/>
      <point x="529" y="377" type="line"/>
      <point x="718" y="740" type="line"/>
      <point x="472" y="740" type="line"/>
      <point x="341" y="436" type="line"/>
      <point x="332" y="436" type="line"/>
      <point x="201" y="740" type="line"/>
      <point x="-46" y="740" type="line"/>
      <point x="143" y="377" type="line"/>
      <point x="31" y="377" type="line"/>
    </contour>
  </outline>
</glyph>
<glyph name="zero.tosf" format="1">
  <advance width="670"/>
  <note>
    600
  </note>
  <outline>
    <contour>
      <point x="335" y="-10" type="curve" smooth="yes"/>
      <point x="547" y="-10"/>
      <point x="672" y="82"/>
      <point x="672" y="289" type="curve" smooth="yes"/>
      <point x="672" y="508"/>
      <point x="547" y="590"/>
      <point x="335" y="590" type="curve" smooth="yes"/>
      <point x="124" y="590"/>
      <point x="-2" y="508"/>
      <point x="-2" y="289" type="curve" smooth="yes"/>
      <point x="-2" y="82"/>
      <point x="124" y="-10"/>
    </contour>
    <contour>
      <point x="335" y="173" type="curve" smooth="yes"/>
      <point x="256" y="173"/>
      <point x="225" y="193"/>
      <point x="225" y="289" type="curve" smooth="yes"/>
      <point x="225" y="387"/>
      <point x="256" y="407"/>
      <point x="335" y="407" type="curve" smooth="yes"/>
      <point x="412" y="407"/>
      <point x="445" y="387"/>
      <point x="445" y="289" type="curve" smooth="yes"/>
      <point x="445" y="193"/>
      <point x="412" y="173"/>
    </contour>
  </outline>
</glyph>
